<?xml version="1.0" standalone="no"?><!DOCTYPE svg PUBLIC "-//W3C//DTD SVG 1.1//EN" "http://www.w3.org/Graphics/SVG/1.1/DTD/svg11.dtd"><svg t="1642484029486" class="icon" viewBox="0 0 1024 1024" version="1.1" xmlns="http://www.w3.org/2000/svg" p-id="5555" xmlns:xlink="http://www.w3.org/1999/xlink" width="200" height="200"><defs><style type="text/css"></style></defs><path d="M326.144 837.12c-8.704 32.768-42.496 52.224-75.264 43.52-32.768-8.704-52.224-42.496-43.52-75.264 8.704-32.768 85.504-81.92 85.504-81.92s41.984 80.896 33.28 113.664zM761.856 908.8c-7.68 28.672-37.376 45.568-66.048 37.888-28.672-7.68-45.568-37.376-37.888-66.048 7.68-28.672 75.264-71.68 75.264-71.68s36.352 71.168 28.672 99.84z" fill="#16A9D4" p-id="5556"></path><path d="M943.616 444.416c0-103.424-88.576-186.88-197.12-186.88s-197.12 83.968-197.12 186.88v186.88h199.68c107.52-1.024 194.56-84.48 194.56-186.88z" fill="#EAEAEA" p-id="5557"></path><path d="M819.2 435.2c0-59.392-26.624-112.64-69.12-148.992 0.512-5.632 1.024-11.264 1.024-16.896 0-108.544-88.576-196.096-197.12-196.096S356.352 161.28 356.352 269.824c0 2.048 0 3.584 0.512 5.632-24.576-12.288-52.736-18.944-81.92-18.944C171.008 256.512 87.04 340.48 87.04 443.904c0 101.376 80.896 183.808 181.248 187.392v0.512h361.984v-0.512c104.96-4.608 188.928-90.624 188.928-196.096z" fill="#F7F7F7" p-id="5558"></path><path d="M513.024 856.064c-3.584 0-6.656-3.072-6.656-6.656v-183.296c0-3.584 3.072-6.656 6.656-6.656s6.656 3.072 6.656 6.656v183.296c0 3.584-3.072 6.656-6.656 6.656z" fill="#D8D8D8" p-id="5559"></path><path d="M513.024 713.216c-1.536 0-3.584-0.512-4.608-2.048l-26.624-26.624c-2.56-2.56-2.56-6.656 0-9.216s6.656-2.56 9.216 0l22.016 22.016 22.016-22.016c2.56-2.56 6.656-2.56 9.216 0s2.56 6.656 0 9.216l-26.624 26.624c-1.536 1.536-3.072 2.048-4.608 2.048zM539.648 842.24c-1.536 0-3.584-0.512-4.608-2.048l-22.016-22.016-22.016 22.016c-2.56 2.56-6.656 2.56-9.216 0s-2.56-6.656 0-9.216l26.624-26.624c2.56-2.56 6.656-2.56 9.216 0l26.624 26.624c2.56 2.56 2.56 6.656 0 9.216-1.536 1.024-3.072 2.048-4.608 2.048z" fill="#D8D8D8" p-id="5560"></path><path d="M592.384 809.984c-1.024 0-2.048-0.512-3.072-1.024l-158.72-91.648c-3.072-2.048-4.096-5.632-2.56-9.216 2.048-3.072 5.632-4.096 9.216-2.56l158.72 91.648c3.072 2.048 4.096 5.632 2.56 9.216-2.048 2.56-4.096 3.584-6.144 3.584z" fill="#D8D8D8" p-id="5561"></path><path d="M432.64 748.544c-3.072 0-5.632-2.048-6.144-5.12-1.024-3.584 1.024-7.168 4.608-8.192L460.8 727.04l-8.192-29.696c-1.024-3.584 1.024-7.168 4.608-8.192 3.584-1.024 7.168 1.024 8.192 4.608l9.728 36.352c1.024 3.584-1.024 7.168-4.608 8.192l-36.352 9.728c-0.512 0.512-1.024 0.512-1.536 0.512zM566.784 826.368c-3.072 0-5.632-2.048-6.144-5.12l-9.728-36.352c-0.512-1.536 0-3.584 0.512-5.12 1.024-1.536 2.56-2.56 4.096-3.072l36.352-9.728c3.584-1.024 7.168 1.024 8.192 4.608 1.024 3.584-1.024 7.168-4.608 8.192l-29.696 8.192 8.192 29.696c1.024 3.584-1.024 7.168-4.608 8.192-1.536 0-2.048 0.512-2.56 0.512z" fill="#D8D8D8" p-id="5562"></path><path d="M433.664 809.984c-2.048 0-4.608-1.024-5.632-3.072-2.048-3.072-0.512-7.168 2.56-9.216l158.72-91.648c3.072-2.048 7.168-0.512 9.216 2.56 2.048 3.072 0.512 7.168-2.56 9.216l-158.72 91.648c-1.536 0.512-2.56 0.512-3.584 0.512z" fill="#D8D8D8" p-id="5563"></path><path d="M458.752 825.856h-1.536c-3.584-1.024-5.632-4.608-4.608-8.192l8.192-29.696-29.696-8.192c-3.584-1.024-5.632-4.608-4.608-8.192 1.024-3.584 4.608-5.632 8.192-4.608l36.352 9.728c3.584 1.024 5.632 4.608 4.608 8.192l-9.728 36.352c-1.536 3.072-4.096 4.608-7.168 4.608zM593.408 748.544h-1.536l-36.352-9.728c-3.584-1.024-5.632-4.608-4.608-8.192l9.728-36.352c1.024-3.584 4.608-5.632 8.192-4.608 3.584 1.024 5.632 4.608 4.608 8.192l-8.192 29.696 29.696 8.192c3.584 1.024 5.632 4.608 4.608 8.192-0.512 2.56-3.072 4.608-6.144 4.608z" fill="#D8D8D8" p-id="5564"></path></svg>