<?xml version="1.0" standalone="no"?><!DOCTYPE svg PUBLIC "-//W3C//DTD SVG 1.1//EN" "http://www.w3.org/Graphics/SVG/1.1/DTD/svg11.dtd"><svg t="1642483997139" class="icon" viewBox="0 0 1024 1024" version="1.1" xmlns="http://www.w3.org/2000/svg" p-id="3564" xmlns:xlink="http://www.w3.org/1999/xlink" width="200" height="200"><defs><style type="text/css"></style></defs><path d="M935.936 443.904c0-103.424-88.576-186.88-197.12-186.88s-197.12 83.968-197.12 186.88v186.88h199.68c107.52-1.024 194.56-84.48 194.56-186.88z" fill="#EAEAEA" p-id="3565"></path><path d="M812.032 434.688c0-59.392-26.624-112.64-69.12-148.992 0.512-5.632 1.024-11.264 1.024-16.896 0-108.544-88.576-196.096-197.12-196.096S349.184 160.768 349.184 269.312c0 2.048 0 3.584 0.512 5.632C324.608 262.656 296.96 256 267.264 256 163.84 256 79.872 339.968 79.872 443.392c0 101.376 80.896 183.808 181.248 187.392v0.512h361.984v-0.512c104.96-4.608 188.928-90.624 188.928-196.096z" fill="#F7F7F7" p-id="3566"></path><path d="M348.672 710.656m-30.72 0a30.72 30.72 0 1 0 61.44 0 30.72 30.72 0 1 0-61.44 0Z" fill="#D8D8D8" p-id="3567"></path><path d="M498.176 902.656m-25.6 0a25.6 25.6 0 1 0 51.2 0 25.6 25.6 0 1 0-51.2 0Z" fill="#D8D8D8" p-id="3568"></path><path d="M551.936 741.888m-16.896 0a16.896 16.896 0 1 0 33.792 0 16.896 16.896 0 1 0-33.792 0Z" fill="#D8D8D8" p-id="3569"></path><path d="M372.736 879.616m-16.896 0a16.896 16.896 0 1 0 33.792 0 16.896 16.896 0 1 0-33.792 0Z" fill="#D8D8D8" p-id="3570"></path><path d="M738.816 803.328m-27.648 0a27.648 27.648 0 1 0 55.296 0 27.648 27.648 0 1 0-55.296 0Z" fill="#D8D8D8" p-id="3571"></path><path d="M247.808 776.192m-20.48 0a20.48 20.48 0 1 0 40.96 0 20.48 20.48 0 1 0-40.96 0Z" fill="#D8D8D8" p-id="3572"></path><path d="M632.832 794.112h-296.96c-6.144 0-11.776-5.12-11.776-11.776 0-6.144 5.12-11.776 11.776-11.776h296.96c23.04 0 41.984-18.944 41.984-41.984 0-23.04-18.944-41.984-41.984-41.984-6.144 0-11.776-5.12-11.776-11.776 0-6.144 5.12-11.776 11.776-11.776 35.84 0 65.024 29.184 65.024 65.024 0 36.864-29.184 66.048-65.024 66.048z" fill="#D8D8D8" p-id="3573"></path><path d="M621.056 950.272c-6.144 0-11.776-5.12-11.776-11.776 0-6.144 5.12-11.776 11.776-11.776 23.04 0 41.984-18.944 41.984-41.984 0-23.04-18.944-41.984-41.984-41.984H276.992c-6.144 0-11.776-5.12-11.776-11.776 0-6.144 5.12-11.776 11.776-11.776h344.064c35.84 0 65.024 29.184 65.024 65.024 0 36.864-29.184 66.048-65.024 66.048z" fill="#D8D8D8" p-id="3574"></path></svg>