<?xml version="1.0" standalone="no"?><!DOCTYPE svg PUBLIC "-//W3C//DTD SVG 1.1//EN" "http://www.w3.org/Graphics/SVG/1.1/DTD/svg11.dtd"><svg t="1642484006258" class="icon" viewBox="0 0 1024 1024" version="1.1" xmlns="http://www.w3.org/2000/svg" p-id="4196" xmlns:xlink="http://www.w3.org/1999/xlink" width="200" height="200"><defs><style type="text/css"></style></defs><path d="M944.128 449.024c0-103.424-88.576-186.88-197.12-186.88s-197.12 83.968-197.12 186.88v186.88h199.68c107.52-1.024 194.56-84.48 194.56-186.88z" fill="#EAEAEA" p-id="4197"></path><path d="M820.224 439.808c0-59.392-26.624-112.64-69.12-148.992 0.512-5.632 1.024-11.264 1.024-16.896 0-108.544-88.576-196.096-197.12-196.096S357.376 165.888 357.376 274.432c0 2.048 0 3.584 0.512 5.632C332.8 267.776 305.152 261.12 275.456 261.12c-103.424 0-187.392 83.968-187.392 187.392 0 101.376 80.896 183.808 181.248 187.392v0.512h361.984v-0.512c104.96-4.608 188.928-90.624 188.928-196.096z" fill="#F7F7F7" p-id="4198"></path><path d="M336.384 726.016m-33.28 0a33.28 33.28 0 1 0 66.56 0 33.28 33.28 0 1 0-66.56 0Z" fill="#D8D8D8" p-id="4199"></path><path d="M481.792 764.928m-32.768 0a32.768 32.768 0 1 0 65.536 0 32.768 32.768 0 1 0-65.536 0Z" fill="#D8D8D8" p-id="4200"></path><path d="M506.88 905.728m-32.768 0a32.768 32.768 0 1 0 65.536 0 32.768 32.768 0 1 0-65.536 0Z" fill="#D8D8D8" p-id="4201"></path><path d="M631.296 856.576m-32.768 0a32.768 32.768 0 1 0 65.536 0 32.768 32.768 0 1 0-65.536 0Z" fill="#D8D8D8" p-id="4202"></path><path d="M574.464 770.048m-16.896 0a16.896 16.896 0 1 0 33.792 0 16.896 16.896 0 1 0-33.792 0Z" fill="#D8D8D8" p-id="4203"></path><path d="M645.632 935.936m-16.896 0a16.896 16.896 0 1 0 33.792 0 16.896 16.896 0 1 0-33.792 0Z" fill="#D8D8D8" p-id="4204"></path><path d="M413.696 824.832m-16.896 0a16.896 16.896 0 1 0 33.792 0 16.896 16.896 0 1 0-33.792 0Z" fill="#D8D8D8" p-id="4205"></path><path d="M346.112 903.68m-32.768 0a32.768 32.768 0 1 0 65.536 0 32.768 32.768 0 1 0-65.536 0Z" fill="#D8D8D8" p-id="4206"></path><path d="M660.48 707.584m-32.768 0a32.768 32.768 0 1 0 65.536 0 32.768 32.768 0 1 0-65.536 0Z" fill="#D8D8D8" p-id="4207"></path></svg>