<?xml version="1.0" standalone="no"?><!DOCTYPE svg PUBLIC "-//W3C//DTD SVG 1.1//EN" "http://www.w3.org/Graphics/SVG/1.1/DTD/svg11.dtd"><svg t="1642484020839" class="icon" viewBox="0 0 1024 1024" version="1.1" xmlns="http://www.w3.org/2000/svg" p-id="5110" xmlns:xlink="http://www.w3.org/1999/xlink" width="200" height="200"><defs><style type="text/css"></style></defs><path d="M906.752 438.784c-124.928 0-226.304-101.376-226.304-226.304 0-24.576 4.096-48.64 11.264-71.168-102.4 21.504-179.712 112.64-179.712 221.184 0 124.928 101.376 226.304 226.304 226.304 100.352 0 184.832-65.024 214.528-155.136-14.336 3.584-29.696 5.12-46.08 5.12z" fill="#EDA915" p-id="5111"></path><path d="M854.016 664.576c0-94.208-80.896-171.008-180.224-171.008s-180.224 76.288-180.224 171.008v171.008H675.84c98.816-1.024 178.176-77.312 178.176-171.008z" fill="#EAEAEA" p-id="5112"></path><path d="M740.864 656.384c0-54.272-24.576-102.912-62.976-136.192 0.512-5.12 1.024-10.24 1.024-15.36 0-98.816-80.896-179.2-180.224-179.2s-180.224 80.384-180.224 179.2c0 1.536 0 3.584 0.512 5.12-22.528-11.264-48.128-17.408-74.752-17.408-94.72 0-171.52 76.8-171.52 171.52 0 92.672 73.728 167.936 165.888 171.008v0.512H568.32v-0.512c95.744-4.096 172.544-82.432 172.544-178.688z" fill="#F7F7F7" p-id="5113"></path></svg>