<?xml version="1.0" standalone="no"?><!DOCTYPE svg PUBLIC "-//W3C//DTD SVG 1.1//EN" "http://www.w3.org/Graphics/SVG/1.1/DTD/svg11.dtd"><svg t="1642512460844" class="icon" viewBox="0 0 1024 1024" version="1.1" xmlns="http://www.w3.org/2000/svg" p-id="4835" xmlns:xlink="http://www.w3.org/1999/xlink" width="200" height="200"><defs><style type="text/css"></style></defs><path d="M511.838829 885.773845c-158.025083 0-286.59225-128.567167-286.59225-286.586111 0-78.243015 82.479503-251.466242 171.606403-427.00828 5.617951-11.05273 10.531867-20.723997 14.532995-28.713972 25.272593-50.41625 60.490699-78.177524 99.150184-78.177524 22.300912 0 64.843844 10.140964 99.305727 78.060867 4.53734 8.94165 10.154267 19.837814 16.579607 32.324196 89.335654 173.496449 172.010609 344.880795 172.010609 423.515736C798.43108 757.206678 669.862889 885.773845 511.838829 885.773845zM510.535137 118.674866c-16.906042 0-36.130895 18.20871-51.420113 48.721655-4.053316 8.055466-9.006118 17.817808-14.663978 28.961612-45.344744 89.309048-165.818583 326.58101-165.818583 402.830625 0 128.58661 104.611569 233.19818 233.205343 233.19818 128.58047 0 233.205343-104.611569 233.205343-233.19818 0-76.53614-116.392894-302.558897-166.092829-399.076114-6.478552-12.590759-12.147668-23.591301-16.723893-32.611745C546.482861 136.466068 527.64891 118.674866 510.535137 118.674866z" p-id="4836" fill="#ffffff"></path><path d="M516.921591 958.712041c-14.741749 0-26.693965-11.965519-26.693965-26.693965l0-66.734914c0-14.754029 11.952216-26.693965 26.693965-26.693965 14.740726 0 26.693965 11.939937 26.693965 26.693965l0 66.734914C543.615557 946.746522 531.66334 958.712041 516.921591 958.712041z" p-id="4837" fill="#ffffff"></path><path d="M516.921591 358.097818c-7.378038 0-13.346983-5.969968-13.346983-13.346983l0-13.346983c0-7.377014 5.968945-13.346983 13.346983-13.346983 7.363711 0 13.346983 5.968945 13.346983 13.346983l0 13.346983C530.268574 352.127849 524.286326 358.097818 516.921591 358.097818z" p-id="4838" fill="#ffffff"></path><path d="M516.921591 865.283162c-7.378038 0-13.346983-5.967922-13.346983-13.346983L503.574608 384.79076c0-7.377014 5.968945-13.346983 13.346983-13.346983 7.363711 0 13.346983 5.969968 13.346983 13.346983L530.268574 851.936179C530.268574 859.31524 524.286326 865.283162 516.921591 865.283162z" p-id="4839" fill="#ffffff"></path><path d="M512.203126 765.990738c-3.414773 0-6.830569-1.302669-9.43693-3.90903-5.213745-5.214768-5.213745-13.661138 0-18.872836l105.940844-105.933681c5.213745-5.214768 13.659091-5.214768 18.872836 0 5.213745 5.212722 5.213745 13.659091 0 18.872836L521.640056 762.081709C519.032672 764.688069 515.618922 765.990738 512.203126 765.990738z" p-id="4840" fill="#ffffff"></path><path d="M397.712559 535.073508c-3.466961 0-6.933923-1.329275-9.475815-3.871167-2.39863-2.397606-3.871167-5.864568-3.871167-9.475815 0-3.466961 1.472538-6.933923 4.001127-9.475815 4.809539-4.809539 13.881149-4.809539 18.821671 0.12996 2.541893 2.410909 3.871167 5.878894 3.871167 9.344832 0 3.610224-1.460258 6.948249-3.871167 9.475815C404.659785 533.744233 401.322783 535.073508 397.712559 535.073508z" p-id="4841" fill="#ffffff"></path><path d="M511.838829 649.212058c-3.415796 0-6.829546-1.302669-9.43693-3.90903l-87.419002-87.432305c-5.213745-5.214768-5.213745-13.661138 0-18.872836 5.213745-5.214768 13.659091-5.214768 18.872836 0l87.419002 87.432305c5.213745 5.212722 5.213745 13.659091 0 18.872836C518.668375 647.909389 515.253602 649.212058 511.838829 649.212058z" p-id="4842" fill="#ffffff"></path><path d="M512.203126 469.030349c-3.414773 0-6.830569-1.303692-9.43693-3.910053-5.213745-5.213745-5.213745-13.660114 0-18.872836l83.418898-83.417875c5.212722-5.213745 13.659091-5.213745 18.872836 0 5.213745 5.213745 5.213745 13.660114 0 18.872836l-83.418898 83.417875C519.032672 467.726657 515.618922 469.030349 512.203126 469.030349z" p-id="4843" fill="#ffffff"></path></svg>