<?xml version="1.0" standalone="no"?><!DOCTYPE svg PUBLIC "-//W3C//DTD SVG 1.1//EN" "http://www.w3.org/Graphics/SVG/1.1/DTD/svg11.dtd"><svg t="1650278268783" class="icon" viewBox="0 0 1024 1024" version="1.1" xmlns="http://www.w3.org/2000/svg" p-id="9316" xmlns:xlink="http://www.w3.org/1999/xlink" width="200" height="200"><defs><style type="text/css"></style></defs><path d="M896 453.888 896 448c0-212.096-171.968-384-384-384S128 235.904 128 448l0 5.888C90.816 467.136 64 502.272 64 544l0 128C64 724.992 107.008 768 160 768S256 724.992 256 672l0-128c0-41.728-26.816-76.864-64-90.112L192 448c0-176.768 143.232-320 320-320s320 143.232 320 320l0 5.888c-37.184 13.248-64 48.384-64 90.112l0 128c0 52.992 43.008 96 96 96s96-43.008 96-96l0-128C960 502.272 933.184 467.136 896 453.888zM192 672C192 689.6 177.664 704 160 704S128 689.6 128 672l0-128C128 526.272 142.336 512 160 512S192 526.272 192 544L192 672zM896 672c0 17.6-14.336 32-32 32S832 689.6 832 672l0-128C832 526.272 846.336 512 864 512S896 526.272 896 544L896 672zM640 957.248 640 928c0-17.728-14.336-32-32-32l-128 0C462.336 896 448 910.272 448 928l0 64C448 1009.6 462.336 1024 480 1024l128 0c159.04 0 288-114.624 288-256l-32 0L832 768C832 864.64 748.352 943.744 640 957.248z" p-id="9317" fill="#ffffff"></path></svg>