<?xml version="1.0" standalone="no"?><!DOCTYPE svg PUBLIC "-//W3C//DTD SVG 1.1//EN" "http://www.w3.org/Graphics/SVG/1.1/DTD/svg11.dtd"><svg t="1650277953824" class="icon" viewBox="0 0 1024 1024" version="1.1" xmlns="http://www.w3.org/2000/svg" p-id="3451" xmlns:xlink="http://www.w3.org/1999/xlink" width="200" height="200"><defs><style type="text/css"></style></defs><path d="M892.95872 425.90208c-2.80448-8.63104-10.26688-14.92096-19.24608-16.22656l-234.94528-34.1376-105.07008-212.896c-4.01664-8.13824-12.30336-13.29024-21.37984-13.29024-9.0752 0-17.3632 5.152-21.37984 13.29024l-105.07136 212.896-234.944 34.13888c-8.98048 1.3056-16.4416 7.59552-19.24608 16.22656s-0.46592 18.1056 6.03264 24.44032l170.00704 165.71776-40.13312 233.99424c-1.53472 8.94464 2.14272 17.98528 9.4848 23.31904 4.1536 3.01696 9.07136 4.55424 14.016 4.55424 3.79392 0 7.60448-0.90496 11.09376-2.74048L596.62848 720.3712c11.6544-6.12608 16.1344-20.54272 10.00704-32.19712-6.12864-11.65568-20.544-16.13312-32.19712-10.00704L322.74688 810.49856l34.0864-198.7328c1.32608-7.73376-1.23776-15.62496-6.85696-21.10208L205.58592 449.91744l199.54176-28.99456c7.76576-1.12768 14.47936-6.00448 17.95072-13.04192l89.23904-180.81664 89.23904 180.81664c3.47264 7.03744 10.18624 11.91424 17.94944 13.04192l199.54304 28.99456L674.65728 590.6624c-5.6192 5.4784-8.18432 13.3696-6.85568 21.10336l34.08768 198.73536-79.60704-41.85088c-11.65312-6.1248-26.06976-1.6448-32.19584 10.00832-6.12864 11.65312-1.64736 26.06976 10.00704 32.19584l122.36672 64.3328c8.02944 4.22272 17.7664 3.52 25.10848-1.81504 7.3408-5.33504 11.01696-14.37312 9.48352-23.31904l-40.1344-233.99424L886.9248 450.3424C893.42336 444.00768 895.76192 434.53312 892.95872 425.90208z" p-id="3452" fill="#ffffff"></path></svg>