<?xml version="1.0" standalone="no"?><!DOCTYPE svg PUBLIC "-//W3C//DTD SVG 1.1//EN" "http://www.w3.org/Graphics/SVG/1.1/DTD/svg11.dtd"><svg t="1650884592861" class="icon" viewBox="0 0 1024 1024" version="1.1" xmlns="http://www.w3.org/2000/svg" p-id="7642" xmlns:xlink="http://www.w3.org/1999/xlink" width="200" height="200"><defs><style type="text/css"></style></defs><path d="M892 141.6H134c-37.6 0-68 30.4-68 68v534.5c0 37.6 30.4 68 68 68h109.1l18.5 82c8.6 38 55.1 52.5 83.7 26l117-108H892c37.6 0 68-30.4 68-68V209.6c0-37.5-30.5-68-68-68zM314 507.8c-31.8 0-57.5-25.8-57.5-57.5s25.8-57.5 57.5-57.5c31.8 0 57.5 25.8 57.5 57.5s-25.7 57.5-57.5 57.5z m209.4 4c-31.8 0-57.5-25.8-57.5-57.5s25.8-57.5 57.5-57.5c31.8 0 57.5 25.8 57.5 57.5s-25.7 57.5-57.5 57.5z m209.4 0c-31.8 0-57.5-25.8-57.5-57.5s25.8-57.5 57.5-57.5c31.8 0 57.5 25.8 57.5 57.5s-25.7 57.5-57.5 57.5z" p-id="7643" fill="#ff2832"></path></svg>