<?xml version="1.0" standalone="no"?><!DOCTYPE svg PUBLIC "-//W3C//DTD SVG 1.1//EN" "http://www.w3.org/Graphics/SVG/1.1/DTD/svg11.dtd"><svg t="1649645978902" class="icon" viewBox="0 0 1024 1024" version="1.1" xmlns="http://www.w3.org/2000/svg" p-id="5066" xmlns:xlink="http://www.w3.org/1999/xlink" width="200" height="200"><defs><style type="text/css"></style></defs><path d="M369 770.39a30 30 0 0 1-29.34-23.74L223.33 201.26l-47 1.4a30 30 0 1 1-1.78-60l72-2.14a30 30 0 0 1 30.23 23.73l116.43 546.1 373.13-0.35a30 30 0 0 1 0 60l-397.34 0.39z m-24.82-115.97a30 30 0 0 1-29.35-23.86l-67.74-324a30 30 0 0 1 29.65-36.14L867.86 276a30 30 0 0 1 29.43 34.12l-42.29 305A30 30 0 0 1 826.1 641L345 654.41z m-30.73-323.61l55 262.92 430.62-12 34.13-246z m43 562.58a91.5 91.5 0 1 1 91.5-91.5 91.61 91.61 0 0 1-91.5 91.5z m0-123a31.5 31.5 0 1 0 31.5 31.5 31.53 31.53 0 0 0-31.5-31.5zM763.36 893.6a91.5 91.5 0 0 1 0-183c25.44 0 47.34 7.43 63.31 21.49 12.86 11.32 28.19 32.66 28.19 70a91.59 91.59 0 0 1-91.5 91.51z m0-123a31.5 31.5 0 1 0 31.5 31.5c0-19.44-5.27-31.49-31.5-31.49z" p-id="5067" fill="#ffffff"></path></svg>