<?xml version="1.0" standalone="no"?><!DOCTYPE svg PUBLIC "-//W3C//DTD SVG 1.1//EN" "http://www.w3.org/Graphics/SVG/1.1/DTD/svg11.dtd"><svg t="1649557312553" class="icon" viewBox="0 0 1024 1024" version="1.1" xmlns="http://www.w3.org/2000/svg" p-id="2242" xmlns:xlink="http://www.w3.org/1999/xlink" width="200" height="200"><defs><style type="text/css"></style></defs><path d="M925.716045 283.255249c0.314155-1.439792 0.898463-2.787486 0.898463-4.317329 0-1.304715-0.538259-2.428306-0.741897-3.689019-0.065492-0.448208-0.178055-0.854461-0.290619-1.348718-0.564865-2.562359-1.486864-4.946662-2.814092-7.105838-0.26913-0.405229-0.536212-0.810459-0.830925-1.214664-1.391696-2.0241-3.012613-3.687996-4.946662-5.173836-0.607844-0.494257-1.284249-0.899486-1.955538-1.349741-1.798972-1.079588-3.667529-1.888-5.756097-2.472308-0.607844-0.225127-1.035586-0.63138-1.664919-0.76748-0.74292-0.134053-1.417279 0.047072-2.137687-0.042979-0.901533-0.091074-1.685385-0.494257-2.610454-0.494257L360.149035 255.279081l-100.612489 0.078795-28.89919-89.763396-0.091074 0.046049c-2.405793-10.211573-11.175527-17.047258-21.115923-17.85567-0.540306-0.135076-0.944512-0.49528-1.484817-0.584308l0.023536-0.091074-83.141582-15.246239-0.021489 0.225127c-12.95301-2.025123-25.052582 6.789637-27.120684 19.74367-2.070148 12.909008 6.79066 25.007557 19.744693 27.03268l71.177086 13.042037 123.102712 379.922892-56.42408 140.734278 0.089028 0.090051c-0.472767 0.629333-0.561795 1.394766-0.988514 2.068102-0.899486 1.528819-1.664919 3.013637-2.204202 4.722558-0.494257 1.526773-0.741897 3.01159-0.920976 4.542456-0.112564 0.89744-0.539282 1.708921-0.539282 2.608407 0 0.63138 0.291642 1.125637 0.336668 1.708921 0.1361 1.708921 0.517793 3.327792 1.01205 4.948709 0.405229 1.302669 0.741897 2.608407 1.349741 3.821025 0.719384 1.484817 1.731434 2.744507 2.788509 4.093225 0.853437 1.079588 1.709945 2.112104 2.719948 3.057639 0.563842 0.449231 0.855484 1.079588 1.417279 1.528819 0.899486 0.675382 1.979074 0.855484 2.946099 1.350764 1.103124 0.629333 2.182712 1.211595 3.396353 1.61887 1.934049 0.673335 3.867074 1.033539 5.91471 1.213641 0.629333 0.046049 1.190105 0.360204 1.866511 0.360204l0 0.090051 593.0919 0 0-0.180102c13.110599 0 23.747867-10.658757 23.747867-23.701818 0-13.087063-10.638291-23.703865-23.747867-23.703865L317.399395 702.801581l36.007075-103.497189 2.156106 6.840802 92.113931 0.1361 341.14982 0 0-0.224104c0.945535 0 1.732457-0.405229 2.610454-0.539282 0.155543 0.044002 0.26913 0.180102 0.427742 0.180102 12.794397 2.832512 25.478278-5.218862 28.313859-17.99177l0.11154 0 104.009865-298.918997c0.314155-0.674359 0.494257-1.393743 0.741897-2.113127l0.900509-2.607384-0.225127-0.045025C925.780513 283.749506 925.668972 283.524378 925.716045 283.255249zM403.507542 806.52185c-23.725354 0-42.954301 19.203364-42.954301 42.86118s19.228947 42.819225 42.954301 42.819225c23.74889 0 42.953278-19.161409 42.953278-42.819225S427.256432 806.52185 403.507542 806.52185zM731.007481 806.52185c-23.700795 0-42.952254 19.203364-42.952254 42.86118s19.250436 42.819225 42.952254 42.819225c23.747867 0 42.976814-19.161409 42.976814-42.819225S754.755348 806.52185 731.007481 806.52185z" p-id="2243" fill="#ff2832"></path></svg>