<?xml version="1.0" standalone="no"?><!DOCTYPE svg PUBLIC "-//W3C//DTD SVG 1.1//EN" "http://www.w3.org/Graphics/SVG/1.1/DTD/svg11.dtd"><svg t="1650278000511" class="icon" viewBox="0 0 1024 1024" version="1.1" xmlns="http://www.w3.org/2000/svg" p-id="5288" xmlns:xlink="http://www.w3.org/1999/xlink" width="200" height="200"><defs><style type="text/css"></style></defs><path d="M872.802928 755.99406 872.864326 755.99406 872.864326 755.624646Z" p-id="5289" fill="#ffffff"></path><path d="M380.33068 316.621171c5.690606 2.026146 11.618619 3.247974 17.636682 3.665483 1.429559 0.089028 2.919493 0.148379 4.319375 0.148379 45.372374 0 82.611509-46.086641 86.60445-107.188254 3.514033-53.758368-20.585851-100.740402-58.600653-114.28079-5.748934-2.040473-11.707646-3.232624-17.635659-3.634784-23.266913-1.370207-47.518247 10.501168-64.588017 32.621978-15.163351 19.765159-24.488741 46.175669-26.306132 74.402547C318.245669 256.099772 342.316901 303.110459 380.33068 316.621171M408.393829 144.962579l1.014096 0.029676c1.429559 0.104377 2.740414 0.402159 4.229325 0.923022 13.972223 4.945639 27.707039 30.864962 25.561166 64.066131-2.323928 35.720549-21.361517 60.611449-37.954427 60.611449l-0.029676 0c-1.400906-0.089028-2.771113-0.402159-4.199649-0.87902-14.002922-4.975315-27.735691-30.90794-25.621541-64.126506 1.192152-18.277272 7.090489-35.480073 16.146749-47.294143C391.352711 153.319921 399.159514 144.962579 408.393829 144.962579" p-id="5290" fill="#ffffff"></path><path d="M824.402591 464.134853c-8.102538-14.390755-24.727171-22.99983-44.50768-22.99983-11.202133 0-22.25691 3.054569-32.414247 8.327666 7.954159-5.510504 15.312754-12.602016 21.033036-21.540595 19.422352-30.222325 15.400758-66.285682-9.146311-82.120322-7.091512-4.542456-15.432481-6.955412-24.25031-6.955412-19.067264 0-38.133505 11.17041-51.181683 28.927843 4.050246-5.40715 7.804756-11.261485 10.933003-17.696034 19.36607-39.35431 11.948123-81.300654-17.009396-95.542007-6.315846-2.994194-13.110599-4.557806-20.22974-4.557806-20.914332 0-42.154076 13.585413-57.259098 35.45142 0.327458-0.877997 0.74599-1.682315 1.103124-2.560312 15.46011-43.466977 2.651386-86.396719-29.167297-97.716532-5.065366-1.788739-10.395768-2.711761-15.84692-2.711761-28.213575 0-55.710836 24.13263-68.521606 60.000536-15.491833 43.51098-2.682086 86.469374 29.104875 97.80556 5.065366 1.804089 10.397814 2.726088 15.791661 2.726088 20.556175 0 40.664142-12.913101 55.083549-33.708729-5.27412 13.973246-7.6574 28.361955-6.495948 41.514509 1.816369 20.407796 11.82635 36.510542 27.587312 44.270273 1.520633 0.729617 3.038196 1.37123 4.64888 1.982144 5.034666 1.757017 10.277064 2.651386 15.69854 2.651386 18.231223 0 36.762275-10.397814 51.211359-27.646664-19.094894 30.118971-15.043624 65.897849 9.384741 81.613786 1.965771 1.280156 4.022617 2.38328 6.078439 3.2623l3.067872 1.25048c4.943592 1.772366 10.217712 2.651386 15.611559 2.651386 8.580422 0 17.128099-2.710738 25.291013-6.89606-26.424836 17.786085-37.120432 47.933709-24.069185 71.215972 5.27105 9.41544 13.763468 16.415878 24.546046 20.316721 5.901407 2.057869 12.33391 3.131317 19.038612 3.131317 12.034081 0 24.309662-3.338025 35.540448-9.68457 13.106506-7.328919 23.624047-18.11252 29.493731-30.371728C831.879889 493.448482 831.820538 477.286384 824.402591 464.134853M534.827403 259.198344c6.436596-18.187221 17.011442-25.664519 20.676925-26.842345 2.025123 3.232624 5.479805 15.670911-0.952698 33.82948-6.465249 18.172895-17.072841 25.679869-20.676925 26.841322C531.79023 289.794176 528.335548 277.341562 534.827403 259.198344M631.503233 349.347526c-0.925069-4.125971-1.578961-14.196327 5.15337-27.885094 6.641257-13.45136 14.83487-19.184945 18.766412-21.047362 0.954745 4.172019 1.430582 14.152325-5.211698 27.662013C643.388934 341.987908 634.927215 347.633488 631.503233 349.347526M722.693118 398.488737c2.740414-4.214998 5.809309-6.865361 8.192589-8.416693-0.358157 2.740414-1.428535 6.584975-4.257977 10.948353-2.77316 4.305049-5.810333 6.867408-8.103562 8.326643C718.850603 406.605601 719.922005 402.792763 722.693118 398.488737M763.597737 498.305093c1.430582-1.460258 3.396353-3.053546 6.077416-4.574179 2.561335-1.429559 5.003967-2.293229 7.120165-2.815115-1.462305 1.505283-3.428076 3.113921-6.107091 4.619204C767.977487 497.023914 765.564531 497.872235 763.597737 498.305093" p-id="5291" fill="#ffffff"></path><path d="M614.01493 420.578848 475.365126 335.197248l-3.1569-1.563612c-36.464493-15.462157-78.17343-13.078877-111.361297 6.225795-29.135574 16.96744-49.096185 45.119617-54.786791 77.308737-6.046716 34.20094 5.154393 71.558779 15.999392 107.84624 11.379165 38.191834 23.147186 77.665871 10.903328 104.210433-12.512988 27.169803-31.280424 38.936801-53.133128 52.671617-24.429389 15.341407-52.104705 32.739659-72.303746 71.856561-15.669888 30.328749-17.844413 65.125253-5.943362 95.53996 9.488095 24.162306 32.605605 57.20077 88.897679 77.549214l1.369184 0.447185c5.392824 0.982374 11.082406 1.488911 16.921391 1.488911l0.060375 0c97.507778 0 228.588185-138.441049 256.56333-177.109744 27.825742-28.749788 67.656913-76.951603 99.652628-143.505391C701.155593 532.013823 683.579285 467.202725 614.01493 420.578848M512.664637 733.850737c-56.128345 57.141418-159.207002 147.0798-199.245903 147.0798-2.264577 0-4.290723-0.297782-5.988388-0.893346-30.715559-11.112082-51.300386-28.003797-59.478649-48.91813-6.688329-17.071817-5.303796-36.911678 3.753487-54.489008 14.031575-27.109428 32.890085-38.936801 54.682413-52.610218 24.87555-15.611559 53.089126-33.307593 71.798233-74.033134 20.138666-43.585681 5.600555-92.263333-8.491395-139.408073-9.562796-31.981389-18.559705-62.234413-14.627139-84.757382 3.128247-17.711384 14.388708-33.337269 30.803563-42.915415 10.904351-6.344498 23.475667-9.667174 36.406165-9.667174 8.937556 0 17.814738 1.550309 26.455535 4.632507l138.350998 84.593654c48.233538 32.338522 58.421574 70.651107 33.007765 124.245745-26.453489 55.083549-60.712757 101.916181-104.745622 143.237285l-3.337002 3.275603L512.664637 733.850737z" p-id="5292" fill="#ffffff"></path></svg>