<?xml version="1.0" standalone="no"?><!DOCTYPE svg PUBLIC "-//W3C//DTD SVG 1.1//EN" "http://www.w3.org/Graphics/SVG/1.1/DTD/svg11.dtd"><svg t="1651295145140" class="icon" viewBox="0 0 1024 1024" version="1.1" xmlns="http://www.w3.org/2000/svg" p-id="4690" xmlns:xlink="http://www.w3.org/1999/xlink" width="200" height="200"><defs><style type="text/css"></style></defs><path d="M516.2 959.53A419.69 419.69 0 1 1 680 926.44a418.19 418.19 0 0 1-163.8 33.09z m0-782.85a360.79 360.79 0 1 0 140.89 28.44 359.57 359.57 0 0 0-140.89-28.44z" fill="#424242" p-id="4691"></path><path d="M939.467 936.482l-41.655 41.656L750.684 831.01l41.655-41.656zM243.405 789.365l41.655 41.656-143.153 143.153-41.656-41.655zM546.94 229.46v314.02h-58.91V229.46z" fill="#424242" p-id="4692"></path><path d="M302.54 484.57h242.31v58.91H302.54zM943.55 355.39l-20.26-21.61c-8.71-9.3-83.7-89.33-93.57-100.24-9.72-9.86-86.11-89.43-95-98.7l-20.52-21.38 21.5-20.39a166.68 166.68 0 0 1 235.65 6.3c63.23 66.7 60.4 172.41-6.3 235.64z m-143-237c32.35 33.68 67.88 70.61 71.34 74.06l0.63 0.63 0.6 0.68c3.79 4.25 38.49 41.4 70.06 75.12a107.86 107.86 0 0 0-142.59-150.49zM84 358.86l-21.83-20c-67.76-62.1-72.36-167.75-10.26-235.51a166.69 166.69 0 0 1 235.48-10.27l21.85 20-20.16 21.72c-8.74 9.42-83.79 90.26-93.33 100.28-9.69 11.07-83.33 92.35-91.88 101.79z m90.91-250.68c-1.6 0-3.2 0-4.8 0.1a107.8 107.8 0 0 0-87.2 164c31-34.24 65.05-71.94 68.76-76.26l0.58-0.68 0.63-0.65c3.4-3.51 38.3-41 70.08-75.24a107 107 0 0 0-48.08-11.27z" fill="#424242" p-id="4693"></path></svg>