<?xml version="1.0" standalone="no"?><!DOCTYPE svg PUBLIC "-//W3C//DTD SVG 1.1//EN" "http://www.w3.org/Graphics/SVG/1.1/DTD/svg11.dtd"><svg t="1642512299808" class="icon" viewBox="0 0 1024 1024" version="1.1" xmlns="http://www.w3.org/2000/svg" p-id="630" xmlns:xlink="http://www.w3.org/1999/xlink" width="200" height="200"><defs><style type="text/css"></style></defs><path d="M511.62 900.4c-0.32 0-0.64-0.02-0.98-0.02-3.38-0.2-83.76-4.96-164.36-36.54-53.86-21.12-97.58-53.1-124.76-76.22-14.74-12.52-24.74-29.4-28.12-47.52L144.1 476.8c-3.92-21.06-1.24-42.26 7.6-59.72 18.26-36.08 59.66-106.42 131.84-172.2 111.6-101.68 220.84-119.08 225.44-119.76 5.1-0.74 10.26 0.72 14.16 4.08a17.666 17.666 0 0 1 6.14 13.4v740.14c0 4.86-2 9.5-5.52 12.84a17.732 17.732 0 0 1-12.14 4.82z m-17.68-735.6c-35.12 9.7-110.72 37.06-186.58 106.2-68 61.98-106.96 128.12-124.12 162.04-5.34 10.56-6.9 23.8-4.4 37.26l49.28 263.3c1.9 10.18 7.68 19.82 16.28 27.12 20.58 17.48 62.86 49.88 114.78 70.24 53 20.76 107.18 29.2 134.78 32.4V164.8z" p-id="631" fill="#ffffff"></path><path d="M511.62 900.4c-4.5 0-8.86-1.72-12.14-4.84a17.624 17.624 0 0 1-5.52-12.84V142.58c0-5.14 2.24-10.04 6.14-13.4a17.62 17.62 0 0 1 14.16-4.08c4.6 0.7 113.86 18.08 225.44 119.76 72.18 65.76 113.6 136.12 131.84 172.2 8.84 17.46 11.54 38.66 7.6 59.7l-49.28 263.32c-3.4 18.12-13.38 35-28.12 47.52-27.2 23.12-70.9 55.1-124.76 76.22-80.6 31.58-160.98 36.34-164.36 36.54-0.36 0.02-0.68 0.04-1 0.04z m17.66-735.6v698.54c27.6-3.18 81.78-11.64 134.78-32.4 51.92-20.36 94.2-52.74 114.78-70.24 8.6-7.3 14.38-16.94 16.28-27.12l49.26-263.3c2.52-13.44 0.96-26.68-4.4-37.24-17.16-33.92-56.12-100.08-124.12-162.04-75.86-69.14-151.46-96.48-186.58-106.2z" p-id="632" fill="#ffffff"></path><path d="M300.54 366.76c-4.22 0-8.44-1.5-11.84-4.56a17.676 17.676 0 0 1-1.28-24.96c110.28-122.22 216.5-142.98 220.98-143.82 9.64-1.78 18.8 4.58 20.58 14.18 1.76 9.58-4.54 18.78-14.12 20.58-1.12 0.2-99.6 20.14-201.2 132.74a17.612 17.612 0 0 1-13.12 5.84z" p-id="633" fill="#ffffff"></path><path d="M722.68 366.76c-4.82 0-9.64-1.96-13.12-5.84-101.66-112.66-200.22-132.56-201.2-132.74-9.56-1.82-15.88-11.06-14.08-20.62 1.78-9.58 11-15.86 20.54-14.12 4.46 0.82 110.7 21.6 220.98 143.82 6.54 7.24 5.96 18.42-1.28 24.96a17.794 17.794 0 0 1-11.84 4.54zM200.66 769.58c-2.62 0-5.28-0.58-7.8-1.82-98.48-48.5-146-170.56-140.7-260.78 3.54-60.04 40.26-94.38 75.1-101.78 35.76-7.58 69.92 10.7 89.1 47.78 4.48 8.66 1.1 19.32-7.56 23.82-8.68 4.5-19.32 1.1-23.82-7.56-11.9-22.98-30.26-33.76-50.36-29.46-21.72 4.62-44.72 27.82-47.16 69.28-4.7 79.98 39.28 186.78 121.02 227.02a17.66 17.66 0 0 1 8.04 23.66 17.708 17.708 0 0 1-15.86 9.84zM822.58 769.58c-6.52 0-12.78-3.62-15.86-9.88a17.694 17.694 0 0 1 8.04-23.66c81.74-40.24 125.72-147.02 121.02-227.02-2.44-41.46-25.44-64.68-47.16-69.28-20.12-4.3-38.46 6.46-50.36 29.46-4.48 8.68-15.16 12.06-23.82 7.56-8.66-4.48-12.06-15.16-7.56-23.82 19.2-37.08 53.38-55.36 89.1-47.78 34.84 7.4 71.56 41.74 75.1 101.78 5.3 90.22-42.2 212.3-140.7 260.78-2.52 1.26-5.18 1.86-7.8 1.86zM308.06 732.3c-1.86 0-3.74-0.3-5.58-0.9a17.66 17.66 0 0 1-12.08-16.76v-128.36c0-9.76 7.9-17.68 17.68-17.68s17.68 7.92 17.68 17.68v75.3l64.34-85.9a17.614 17.614 0 0 1 19.72-6.16 17.66 17.66 0 0 1 12.08 16.76v128.36c0 9.76-7.9 17.68-17.68 17.68s-17.68-7.92-17.68-17.68v-75.3l-64.34 85.9a17.646 17.646 0 0 1-14.14 7.06zM609.4 673.98c-30.66 0-55.6-24.94-55.6-55.6s24.94-55.6 55.6-55.6 55.6 24.94 55.6 55.6-24.94 55.6-55.6 55.6z m0-75.86c-11.16 0-20.26 9.08-20.26 20.26 0 11.18 9.08 20.26 20.26 20.26s20.26-9.08 20.26-20.26c0-11.16-9.1-20.26-20.26-20.26zM699.74 736.08h-31.92c-9.76 0-17.68-7.92-17.68-17.68s7.9-17.68 17.68-17.68h31.92c10.66 0 19.32-8.68 19.32-19.32 0-10.66-8.66-19.32-19.32-19.32l-10.48-0.24a17.67 17.67 0 0 1-13.94-7.36 17.65 17.65 0 0 1-2.54-15.54l17.94-57.94a17.68 17.68 0 0 1 16.88-12.44h39.88c9.76 0 17.68 7.92 17.68 17.68s-7.9 17.68-17.68 17.68h-26.86l-7.56 24.42c23.6 5.86 41.32 27.44 41.32 53.06 0.02 30.16-24.5 54.68-54.64 54.68z" p-id="634" fill="#ffffff"></path><path d="M609.4 737.14c-2.08 0-4.2-0.36-6.26-1.16-9.12-3.46-13.72-13.66-10.26-22.78l29.14-76.82c3.46-9.12 13.66-13.68 22.78-10.26 9.12 3.46 13.72 13.66 10.26 22.78l-29.14 76.82a17.666 17.666 0 0 1-16.52 11.42z" p-id="635" fill="#ffffff"></path></svg>