<?xml version="1.0" standalone="no"?><!DOCTYPE svg PUBLIC "-//W3C//DTD SVG 1.1//EN" "http://www.w3.org/Graphics/SVG/1.1/DTD/svg11.dtd"><svg t="1642484004028" class="icon" viewBox="0 0 1024 1024" version="1.1" xmlns="http://www.w3.org/2000/svg" p-id="4030" xmlns:xlink="http://www.w3.org/1999/xlink" width="200" height="200"><defs><style type="text/css"></style></defs><path d="M916.48 418.816c0-97.792-83.968-177.664-187.392-177.664s-187.392 79.36-187.392 177.664v177.664h189.44c102.912-1.536 185.344-80.384 185.344-177.664z" fill="#EAEAEA" p-id="4031"></path><path d="M798.72 410.112c0-56.32-25.6-107.008-65.536-141.312 0.512-5.12 1.024-10.752 1.024-15.872 0-102.912-83.968-185.856-187.392-185.856S359.424 150.528 359.424 252.928c0 2.048 0 3.584 0.512 5.12-23.552-11.264-49.664-17.92-77.824-17.92-98.304 0-178.176 79.872-178.176 178.176 0 96.256 76.8 174.592 172.032 177.664v0.512h343.04v-0.512c99.84-4.096 179.712-85.504 179.712-185.856z" fill="#F7F7F7" p-id="4032"></path><path d="M485.376 954.88c-2.56 0-5.12-2.048-5.12-5.12v-134.656c0-2.56 2.048-5.12 5.12-5.12s5.12 2.048 5.12 5.12v134.656c-0.512 3.072-2.56 5.12-5.12 5.12z" fill="#D8D8D8" p-id="4033"></path><path d="M485.376 849.92c-1.024 0-2.56-0.512-3.584-1.536l-19.456-19.456c-2.048-2.048-2.048-5.12 0-6.656 2.048-2.048 5.12-2.048 6.656 0l15.872 15.872 15.872-15.872c2.048-2.048 5.12-2.048 6.656 0 2.048 2.048 2.048 5.12 0 6.656l-19.456 19.456c0 1.024-1.536 1.536-2.56 1.536zM504.832 944.64c-1.024 0-2.56-0.512-3.584-1.536l-15.872-15.872-15.872 15.872c-2.048 2.048-5.12 2.048-6.656 0-2.048-2.048-2.048-5.12 0-6.656l19.456-19.456c2.048-2.048 5.12-2.048 6.656 0l19.456 19.456c2.048 2.048 2.048 5.12 0 6.656-1.024 1.024-2.56 1.536-3.584 1.536z" fill="#D8D8D8" p-id="4034"></path><path d="M543.744 921.088c-1.024 0-1.536 0-2.56-0.512l-116.736-67.072c-2.56-1.536-3.072-4.096-1.536-6.656s4.096-3.072 6.656-1.536l116.736 67.072c2.56 1.536 3.072 4.096 1.536 6.656-1.024 1.536-2.56 2.048-4.096 2.048z" fill="#D8D8D8" p-id="4035"></path><path d="M425.984 876.032c-2.048 0-4.096-1.536-4.608-3.584-0.512-2.56 1.024-5.12 3.584-6.144l22.016-5.632-5.632-22.016c-0.512-2.56 1.024-5.12 3.584-6.144 2.56-0.512 5.12 1.024 6.144 3.584l7.168 26.624c0.512 1.024 0 2.56-0.512 3.584-0.512 1.024-1.536 2.048-3.072 2.048l-26.624 7.168c-1.024 0.512-1.536 0.512-2.048 0.512zM524.8 932.864c-2.048 0-4.096-1.536-4.608-3.584l-7.168-26.624c-0.512-2.56 1.024-5.12 3.584-6.144l26.624-7.168c2.56-0.512 5.12 1.024 6.144 3.584 0.512 2.56-1.024 5.12-3.584 6.144l-22.016 5.632 5.632 22.016c0.512 2.56-1.024 5.12-3.584 6.144h-1.024z" fill="#D8D8D8" p-id="4036"></path><path d="M427.008 921.088c-1.536 0-3.072-1.024-4.096-2.56-1.536-2.56-0.512-5.12 1.536-6.656l116.736-67.072c2.56-1.536 5.12-0.512 6.656 1.536 1.536 2.56 0.512 5.12-1.536 6.656l-116.736 67.072c-1.024 1.024-1.536 1.024-2.56 1.024z" fill="#D8D8D8" p-id="4037"></path><path d="M445.952 932.864h-1.024c-2.56-0.512-4.096-3.584-3.584-6.144l5.632-22.016-22.016-5.632c-2.56-0.512-4.096-3.584-3.584-6.144 0.512-2.56 3.584-4.096 6.144-3.584l26.624 7.168c2.56 0.512 4.096 3.584 3.584 6.144l-7.168 26.624c-0.512 2.048-2.56 3.584-4.608 3.584zM544.256 876.032h-1.024l-26.624-7.168c-2.56-0.512-4.096-3.584-3.584-6.144l7.168-26.624c0.512-2.56 3.584-4.096 6.144-3.584 2.56 0.512 4.096 3.584 3.584 6.144l-5.632 22.016 22.016 5.632c2.56 0.512 4.096 3.584 3.584 6.144-1.536 2.048-3.072 3.584-5.632 3.584z" fill="#D8D8D8" p-id="4038"></path><path d="M661.504 810.496c-3.072 0-5.632-2.56-5.632-5.632v-156.672c0-3.072 2.56-5.632 5.632-5.632 3.072 0 5.632 2.56 5.632 5.632v156.672c0 3.072-2.56 5.632-5.632 5.632z" fill="#D8D8D8" p-id="4039"></path><path d="M661.504 688.64c-1.536 0-3.072-0.512-4.096-1.536l-22.528-22.528c-2.048-2.048-2.048-5.632 0-8.192 2.048-2.048 5.632-2.048 8.192 0l18.944 18.944 18.944-18.944c2.048-2.048 5.632-2.048 8.192 0 2.048 2.048 2.048 5.632 0 8.192l-22.528 22.528c-2.56 1.024-3.584 1.536-5.12 1.536zM684.032 798.72c-1.536 0-3.072-0.512-4.096-1.536l-18.944-18.944-18.944 18.944c-2.048 2.048-5.632 2.048-8.192 0-2.048-2.048-2.048-5.632 0-8.192l22.528-22.528c2.048-2.048 5.632-2.048 8.192 0l22.528 22.528c2.048 2.048 2.048 5.632 0 8.192 0 1.024-1.536 1.536-3.072 1.536z" fill="#D8D8D8" p-id="4040"></path><path d="M729.088 771.072c-1.024 0-2.048 0-3.072-0.512l-135.68-78.336c-2.56-1.536-3.584-5.12-2.048-7.68 1.536-2.56 5.12-3.584 7.68-2.048l135.68 78.336c2.56 1.536 3.584 5.12 2.048 7.68-0.512 1.536-2.56 2.56-4.608 2.56z" fill="#D8D8D8" p-id="4041"></path><path d="M592.384 718.848c-2.56 0-4.608-1.536-5.632-4.096-1.024-3.072 1.024-6.144 4.096-7.168l25.6-6.656-6.656-25.6c-1.024-3.072 1.024-6.144 4.096-7.168 3.072-1.024 6.144 1.024 7.168 4.096l8.192 31.232c1.024 3.072-1.024 6.144-4.096 7.168l-31.232 8.192c-0.512-0.512-1.024 0-1.536 0zM707.584 784.896c-2.56 0-4.608-1.536-5.632-4.096l-8.192-31.232c-1.024-3.072 1.024-6.144 4.096-7.168l31.232-8.192c3.072-1.024 6.144 1.024 7.168 4.096 1.024 3.072-1.024 6.144-4.096 7.168l-25.6 6.656 6.656 25.6c1.024 3.072-1.024 6.144-4.096 7.168h-1.536z" fill="#D8D8D8" p-id="4042"></path><path d="M593.408 771.072c-2.048 0-4.096-1.024-5.12-3.072-1.536-2.56-0.512-6.144 2.048-7.68l135.68-78.336c2.56-1.536 6.144-0.512 7.68 2.048 1.536 2.56 0.512 6.144-2.048 7.68l-135.68 78.336c-0.512 1.024-1.536 1.024-2.56 1.024z" fill="#D8D8D8" p-id="4043"></path><path d="M615.424 784.896h-1.536c-3.072-1.024-4.608-4.096-4.096-7.168l6.656-25.6-25.6-6.656c-3.072-1.024-4.608-4.096-4.096-7.168s4.096-4.608 7.168-4.096l31.232 8.192c3.072 1.024 4.608 4.096 4.096 7.168l-8.192 31.232c-1.024 2.56-3.072 4.096-5.632 4.096zM730.112 718.336h-1.536l-31.232-8.192c-1.536-0.512-2.56-1.536-3.584-2.56-0.512-1.536-1.024-3.072-0.512-4.096l8.192-31.232c1.024-3.072 4.096-5.12 7.168-4.096 3.072 1.024 4.608 4.096 4.096 7.168l-6.656 25.6 25.6 6.656c3.072 1.024 4.608 4.096 4.096 7.168-0.512 2.048-3.072 3.584-5.632 3.584z" fill="#D8D8D8" p-id="4044"></path><path d="M331.264 808.96c-3.584 0-6.656-3.072-6.656-6.656v-184.832c0-3.584 3.072-6.656 6.656-6.656 3.584 0 6.656 3.072 6.656 6.656v184.832c0 3.584-3.072 6.656-6.656 6.656z" fill="#D8D8D8" p-id="4045"></path><path d="M331.264 664.576c-1.536 0-3.584-0.512-4.608-2.048l-26.624-26.624c-2.56-2.56-2.56-6.656 0-9.216s6.656-2.56 9.216 0l22.016 22.016 22.016-22.016c2.56-2.56 6.656-2.56 9.216 0s2.56 6.656 0 9.216l-26.624 26.624c-1.024 1.536-2.56 2.048-4.608 2.048zM304.64 794.624c-1.536 0-3.584-0.512-4.608-2.048-2.56-2.56-2.56-6.656 0-9.216l26.624-26.624c1.024-1.024 3.072-2.048 4.608-2.048 1.536 0 3.584 0.512 4.608 2.048l26.624 26.624c2.56 2.56 2.56 6.656 0 9.216s-6.656 2.56-9.216 0l-22.016-22.016-22.016 22.016c-1.536 1.536-3.072 2.048-4.608 2.048z" fill="#D8D8D8" p-id="4046"></path><path d="M411.648 762.368c-1.024 0-2.048-0.512-3.584-1.024l-160.256-92.672c-3.072-2.048-4.096-6.144-2.56-9.216 2.048-3.072 6.144-4.096 9.216-2.56L414.72 750.08c3.072 2.048 4.096 6.144 2.56 9.216-1.024 2.048-3.584 3.072-5.632 3.072z" fill="#D8D8D8" p-id="4047"></path><path d="M249.856 700.416c-3.072 0-5.632-2.048-6.656-5.12-1.024-3.584 1.024-7.168 4.608-8.192l30.208-8.192-8.192-30.208c-1.024-3.584 1.024-7.168 4.608-8.192 3.584-1.024 7.168 1.024 8.192 4.608l9.728 36.352c0.512 1.536 0 3.584-0.512 5.12-1.024 1.536-2.56 2.56-4.096 3.072l-36.864 9.728c0.512 1.024 0 1.024-1.024 1.024zM386.048 778.752c-3.072 0-5.632-2.048-6.656-5.12l-9.728-36.864c-1.024-3.584 1.024-7.168 4.608-8.192l36.864-9.728c3.584-1.024 7.168 1.024 8.192 4.608 1.024 3.584-1.024 7.168-4.608 8.192l-30.208 8.192 8.192 30.208c1.024 3.584-1.024 7.168-4.608 8.192-1.024 0.512-1.536 0.512-2.048 0.512z" fill="#D8D8D8" p-id="4048"></path><path d="M251.392 762.368c-2.56 0-4.608-1.024-5.632-3.584-2.048-3.072-0.512-7.168 2.56-9.216l160.256-92.672c3.072-2.048 7.168-0.512 9.216 2.56 2.048 3.072 0.512 7.168-2.56 9.216l-160.256 92.672c-1.536 1.024-2.56 1.024-3.584 1.024z" fill="#D8D8D8" p-id="4049"></path><path d="M276.992 778.752h-1.536c-3.584-1.024-5.632-4.608-4.608-8.192l8.192-30.208-30.208-8.192c-3.584-1.024-5.632-4.608-4.608-8.192 1.024-3.584 4.608-5.632 8.192-4.608l36.864 9.728c1.536 0.512 3.072 1.536 4.096 3.072 1.024 1.536 1.024 3.584 0.512 5.12l-9.728 36.352c-1.536 3.072-4.096 5.12-7.168 5.12zM412.672 700.416h-1.536l-36.864-9.728c-3.584-1.024-5.632-4.608-4.608-8.192l9.728-36.864c1.024-3.584 4.608-5.632 8.192-4.608 3.584 1.024 5.632 4.608 4.608 8.192l-8.192 30.208 30.208 8.192c3.584 1.024 5.632 4.608 4.608 8.192-0.512 2.56-3.072 4.608-6.144 4.608z" fill="#D8D8D8" p-id="4050"></path></svg>