<?xml version="1.0" standalone="no"?><!DOCTYPE svg PUBLIC "-//W3C//DTD SVG 1.1//EN" "http://www.w3.org/Graphics/SVG/1.1/DTD/svg11.dtd"><svg t="1642484008615" class="icon" viewBox="0 0 1024 1024" version="1.1" xmlns="http://www.w3.org/2000/svg" p-id="4353" xmlns:xlink="http://www.w3.org/1999/xlink" width="200" height="200"><defs><style type="text/css"></style></defs><path d="M544.768 891.904c-9.216 33.792-43.52 53.76-77.312 44.544-33.792-9.216-53.76-43.52-44.544-77.312 9.216-33.792 88.064-84.48 88.064-84.48s42.496 83.456 33.792 117.248z" fill="#16A9D4" p-id="4354"></path><path d="M937.984 489.984c0-103.424-88.576-186.88-197.12-186.88-109.056 0-197.12 83.968-197.12 186.88v186.88h199.68c107.52-1.536 194.56-84.48 194.56-186.88z" fill="#EAEAEA" p-id="4355"></path><path d="M813.568 480.768c0-59.392-26.624-112.64-69.12-148.992 0.512-5.632 1.024-11.264 1.024-16.896 0-108.544-88.576-196.096-197.12-196.096S350.72 206.848 350.72 315.392c0 2.048 0 3.584 0.512 5.632-24.576-12.288-52.736-18.944-81.92-18.944C165.888 301.568 81.92 385.536 81.92 489.472c0 101.376 80.896 183.808 181.248 187.392v0.512h361.984v-0.512c104.96-4.608 188.416-90.624 188.416-196.096z" fill="#F7F7F7" p-id="4356"></path></svg>