<?xml version="1.0" standalone="no"?><!DOCTYPE svg PUBLIC "-//W3C//DTD SVG 1.1//EN" "http://www.w3.org/Graphics/SVG/1.1/DTD/svg11.dtd"><svg t="1642484034168" class="icon" viewBox="0 0 1024 1024" version="1.1" xmlns="http://www.w3.org/2000/svg" p-id="5859" xmlns:xlink="http://www.w3.org/1999/xlink" width="200" height="200"><defs><style type="text/css"></style></defs><path d="M940.544 436.736c0-103.424-88.576-186.88-197.12-186.88s-197.12 83.968-197.12 186.88v186.88h199.68c107.52-1.024 194.56-84.48 194.56-186.88z" fill="#EAEAEA" p-id="5860"></path><path d="M816.128 427.52c0-59.392-26.624-112.64-69.12-148.992 0.512-5.632 1.024-11.264 1.024-16.896 0-108.544-88.576-196.096-197.12-196.096S353.28 153.6 353.28 262.144c0 2.048 0 3.584 0.512 5.632-24.576-12.288-52.736-18.944-81.92-18.944-103.424 0-187.392 83.968-187.392 187.392 0 101.376 80.896 183.808 181.248 187.392v0.512h361.984v-0.512c104.448-4.608 188.416-90.624 188.416-196.096z" fill="#F7F7F7" p-id="5861"></path><path d="M642.048 953.856c-3.072 0-5.632-2.56-5.632-5.632v-148.992c0-3.072 2.56-5.632 5.632-5.632s5.632 2.56 5.632 5.632v148.992c-0.512 3.072-2.56 5.632-5.632 5.632z" fill="#D8D8D8" p-id="5862"></path><path d="M642.048 838.144c-1.536 0-2.56-0.512-3.584-1.536l-21.504-21.504c-2.048-2.048-2.048-5.632 0-7.68 2.048-2.048 5.632-2.048 7.68 0l17.92 17.92 17.92-17.92c2.048-2.048 5.632-2.048 7.68 0 2.048 2.048 2.048 5.632 0 7.68l-21.504 21.504c-2.048 1.024-3.072 1.536-4.608 1.536zM663.552 942.592c-1.536 0-2.56-0.512-3.584-1.536l-17.92-17.92-17.92 17.92c-2.048 2.048-5.632 2.048-7.68 0-2.048-2.048-2.048-5.632 0-7.68l21.504-21.504c2.048-2.048 5.632-2.048 7.68 0l21.504 21.504c2.048 2.048 2.048 5.632 0 7.68-1.024 1.024-2.048 1.536-3.584 1.536z" fill="#D8D8D8" p-id="5863"></path><path d="M706.56 916.48c-1.024 0-2.048 0-2.56-0.512l-129.024-74.24c-2.56-1.536-3.584-4.608-2.048-7.168 1.536-2.56 4.608-3.584 7.168-2.048l129.024 74.24c2.56 1.536 3.584 4.608 2.048 7.168-1.024 1.536-3.072 2.56-4.608 2.56z" fill="#D8D8D8" p-id="5864"></path><path d="M576.512 866.816c-2.56 0-4.608-1.536-5.12-4.096-0.512-3.072 1.024-5.632 3.584-6.656l24.064-6.656-6.656-24.064c-0.512-3.072 1.024-5.632 3.584-6.656 3.072-1.024 5.632 1.024 6.656 3.584l7.68 29.696c0.512 3.072-1.024 5.632-3.584 6.656l-29.696 7.68c0.512 0 0 0.512-0.512 0.512zM686.08 929.792c-2.56 0-4.608-1.536-5.12-4.096l-7.68-29.696c-0.512-3.072 1.024-5.632 3.584-6.656l29.696-7.68c3.072-1.024 5.632 1.024 6.656 3.584 0.512 3.072-1.024 5.632-3.584 6.656l-24.064 6.656 6.656 24.064c0.512 3.072-1.024 5.632-3.584 6.656-2.048 0.512-2.048 0.512-2.56 0.512z" fill="#D8D8D8" p-id="5865"></path><path d="M577.536 916.48c-2.048 0-3.584-1.024-4.608-2.56-1.536-2.56-0.512-5.632 2.048-7.168l129.024-74.24c2.56-1.536 5.632-0.512 7.168 2.048 1.536 2.56 0.512 5.632-2.048 7.168l-129.024 74.24c-0.512 0.512-1.536 0.512-2.56 0.512z" fill="#D8D8D8" p-id="5866"></path><path d="M598.016 929.792h-1.536c-3.072-0.512-4.608-3.584-3.584-6.656l6.656-24.064-24.064-6.656c-3.072-1.024-4.608-3.584-3.584-6.656 1.024-3.072 3.584-4.608 6.656-3.584l29.696 7.68c3.072 1.024 4.608 3.584 3.584 6.656l-7.68 29.696c-1.536 2.048-3.584 3.584-6.144 3.584zM707.584 866.304h-1.536l-29.696-7.68c-3.072-1.024-4.608-3.584-3.584-6.656l7.68-29.696c1.024-3.072 3.584-4.608 6.656-3.584s4.608 3.584 3.584 6.656l-6.656 24.064 24.064 6.656c3.072 1.024 4.608 3.584 3.584 6.656 0.512 2.048-2.048 3.584-4.096 3.584z" fill="#D8D8D8" p-id="5867"></path><path d="M407.552 861.184c-4.096 0-7.168-3.072-7.168-7.168V655.36c0-4.096 3.072-7.168 7.168-7.168s7.168 3.072 7.168 7.168v198.656c0 3.584-3.072 7.168-7.168 7.168z" fill="#D8D8D8" p-id="5868"></path><path d="M407.552 706.048c-2.048 0-3.584-0.512-5.12-2.048l-28.672-28.672c-2.56-2.56-2.56-7.168 0-10.24 2.56-2.56 7.168-2.56 10.24 0l23.552 23.552 23.552-23.552c2.56-2.56 7.168-2.56 10.24 0 2.56 2.56 2.56 7.168 0 10.24l-28.672 28.672c-1.536 1.536-3.072 2.048-5.12 2.048zM378.88 845.824c-2.048 0-3.584-0.512-5.12-2.048-2.56-2.56-2.56-7.168 0-10.24l28.672-28.672c2.56-2.56 7.168-2.56 10.24 0l28.672 28.672c2.56 2.56 2.56 7.168 0 10.24-2.56 2.56-7.168 2.56-10.24 0l-23.552-23.552-23.552 23.552c-1.536 1.536-3.072 2.048-5.12 2.048z" fill="#D8D8D8" p-id="5869"></path><path d="M493.568 811.008c-1.024 0-2.56-0.512-3.584-1.024l-172.032-99.328c-3.584-2.048-4.608-6.144-2.56-9.728s6.144-4.608 9.728-2.56l172.032 99.328c3.584 2.048 4.608 6.144 2.56 9.728-1.024 2.56-3.584 3.584-6.144 3.584z" fill="#D8D8D8" p-id="5870"></path><path d="M320.512 744.448c-3.072 0-6.144-2.048-7.168-5.12-1.024-4.096 1.024-7.68 5.12-8.704l32.256-8.704-8.704-32.256c-1.024-4.096 1.024-7.68 5.12-8.704 3.584-1.024 7.68 1.024 8.704 5.12l10.752 39.424c1.024 4.096-1.024 7.68-5.12 8.704l-39.424 10.752c-0.512-0.512-1.024-0.512-1.536-0.512zM466.432 828.416c-3.072 0-6.144-2.048-7.168-5.12l-10.752-39.424c-1.024-4.096 1.024-7.68 5.12-8.704l39.424-10.752c4.096-1.024 7.68 1.024 8.704 5.12 1.024 4.096-1.024 7.68-5.12 8.704l-32.256 8.704 8.704 32.256c1.024 4.096-1.024 7.68-5.12 8.704-0.512 0.512-1.024 0.512-1.536 0.512z" fill="#D8D8D8" p-id="5871"></path><path d="M321.536 811.008c-2.56 0-5.12-1.536-6.144-3.584-2.048-3.584-1.024-7.68 2.56-9.728l172.032-99.328c3.584-2.048 7.68-1.024 9.728 2.56 2.048 3.584 1.024 7.68-2.56 9.728l-172.032 99.328c-1.024 1.024-2.56 1.024-3.584 1.024z" fill="#D8D8D8" p-id="5872"></path><path d="M349.184 828.416h-2.048c-3.584-1.024-6.144-5.12-5.12-8.704l8.704-32.256-32.256-8.704c-3.584-1.024-6.144-5.12-5.12-8.704 1.024-3.584 5.12-6.144 8.704-5.12l39.424 10.752c3.584 1.024 6.144 5.12 5.12 8.704l-10.752 39.424c-0.512 2.56-3.584 4.608-6.656 4.608zM495.104 744.448h-2.048l-39.424-10.752c-3.584-1.024-6.144-5.12-5.12-8.704l10.752-39.424c1.024-3.584 5.12-6.144 8.704-5.12 3.584 1.024 6.144 5.12 5.12 8.704l-8.704 32.256 32.256 8.704c3.584 1.024 6.144 5.12 5.12 8.704-0.512 3.584-3.584 5.632-6.656 5.632z" fill="#D8D8D8" p-id="5873"></path></svg>