<?xml version="1.0" standalone="no"?><!DOCTYPE svg PUBLIC "-//W3C//DTD SVG 1.1//EN" "http://www.w3.org/Graphics/SVG/1.1/DTD/svg11.dtd"><svg t="1642483940254" class="icon" viewBox="0 0 1024 1024" version="1.1" xmlns="http://www.w3.org/2000/svg" p-id="2667" xmlns:xlink="http://www.w3.org/1999/xlink" width="200" height="200"><defs><style type="text/css"></style></defs><path d="M943.104 464.384c0-103.424-88.576-186.88-197.12-186.88-109.056 0-197.12 83.968-197.12 186.88v186.88h199.68c107.52-1.024 194.56-84.48 194.56-186.88z" fill="#EAEAEA" p-id="2668"></path><path d="M818.688 455.168c0-59.392-26.624-112.64-69.12-148.992 0.512-5.632 1.024-11.264 1.024-16.896 0-108.544-88.576-196.096-197.12-196.096S355.84 181.248 355.84 289.792c0 2.048 0 3.584 0.512 5.632-24.576-12.288-52.736-18.944-81.92-18.944C171.008 276.48 87.04 360.448 87.04 463.872c0 101.376 80.896 183.808 181.248 187.392v0.512h361.984v-0.512c104.96-4.608 188.416-90.624 188.416-196.096z" fill="#F7F7F7" p-id="2669"></path><path d="M352.768 817.152c-32.256 0-58.368-26.112-58.368-58.368 0-32.256 26.112-58.368 58.368-58.368s58.368 26.112 58.368 58.368c0 32.256-26.112 58.368-58.368 58.368z m0-101.888c-24.064 0-43.52 19.456-43.52 43.52s19.456 43.52 43.52 43.52 43.52-19.456 43.52-43.52-19.456-43.52-43.52-43.52zM504.832 933.376c-42.496 0-77.312-34.816-77.312-77.312s34.816-77.312 77.312-77.312 77.312 34.816 77.312 77.312-34.816 77.312-77.312 77.312z m0-134.656c-31.744 0-57.344 25.6-57.344 57.344s25.6 57.344 57.344 57.344 57.344-25.6 57.344-57.344-25.6-57.344-57.344-57.344z" fill="#D8D8D8" p-id="2670"></path><path d="M677.376 799.232c-32.256 0-58.368-26.112-58.368-58.368s26.112-58.368 58.368-58.368c32.256 0 58.368 26.112 58.368 58.368s-26.112 58.368-58.368 58.368z m0-101.888c-24.064 0-43.52 19.456-43.52 43.52s19.456 43.52 43.52 43.52 43.52-19.456 43.52-43.52-19.968-43.52-43.52-43.52z" fill="#D8D8D8" p-id="2671"></path></svg>