<?xml version="1.0" standalone="no"?><!DOCTYPE svg PUBLIC "-//W3C//DTD SVG 1.1//EN" "http://www.w3.org/Graphics/SVG/1.1/DTD/svg11.dtd"><svg t="1642483981583" class="icon" viewBox="0 0 1024 1024" version="1.1" xmlns="http://www.w3.org/2000/svg" p-id="2817" xmlns:xlink="http://www.w3.org/1999/xlink" width="200" height="200"><defs><style type="text/css"></style></defs><path d="M321.536 834.048c-8.704 32.768-42.496 52.224-75.264 43.52-32.768-8.704-52.224-42.496-43.52-75.264 8.704-32.768 85.504-81.92 85.504-81.92s41.984 80.896 33.28 113.664zM757.248 906.24c-7.68 28.672-37.376 45.568-66.048 37.888-28.672-7.68-45.568-37.376-37.888-66.048 7.68-28.672 75.264-71.68 75.264-71.68s36.352 70.656 28.672 99.84z" fill="#16A9D4" p-id="2818"></path><path d="M939.008 441.856c0-103.424-88.576-186.88-197.12-186.88s-197.12 83.968-197.12 186.88v186.88h199.68c107.52-1.536 194.56-84.48 194.56-186.88z" fill="#EAEAEA" p-id="2819"></path><path d="M814.592 432.64c0-59.392-26.624-112.64-69.12-148.992 0.512-5.632 1.024-11.264 1.024-16.896 0-108.544-88.576-196.096-197.12-196.096S351.744 158.72 351.744 266.752c0 2.048 0 3.584 0.512 5.632-24.576-12.288-52.736-18.944-81.92-18.944-103.424 0-187.392 83.968-187.392 187.392 0 101.376 80.896 183.808 181.248 187.392v0.512h361.984v-0.512c104.96-4.608 188.416-90.112 188.416-195.584z" fill="#F7F7F7" p-id="2820"></path><path d="M524.288 502.272l-16.896 202.24H370.176z" fill="#EDA915" p-id="2821"></path><path d="M459.776 900.608l16.896-202.24h137.216z" fill="#EDA915" p-id="2822"></path></svg>