<?xml version="1.0" standalone="no"?><!DOCTYPE svg PUBLIC "-//W3C//DTD SVG 1.1//EN" "http://www.w3.org/Graphics/SVG/1.1/DTD/svg11.dtd"><svg t="1642483986821" class="icon" viewBox="0 0 1024 1024" version="1.1" xmlns="http://www.w3.org/2000/svg" p-id="3117" xmlns:xlink="http://www.w3.org/1999/xlink" width="200" height="200"><defs><style type="text/css"></style></defs><path d="M508.416 923.136c-6.144 24.064-30.72 37.888-54.784 31.744-24.064-6.144-37.888-30.72-31.744-54.784 6.144-24.064 62.464-59.392 62.464-59.392s30.208 58.368 24.064 82.432zM353.28 775.68c-7.68 28.16-36.864 45.056-65.024 37.376-28.16-7.68-45.056-36.864-37.376-65.024 7.68-28.16 74.24-70.656 74.24-70.656s35.84 69.632 28.16 98.304zM702.976 765.44c-7.168 26.112-34.304 41.984-60.416 34.816-26.112-7.168-41.984-34.304-34.816-60.416 7.168-26.112 68.608-66.048 68.608-66.048s33.792 65.536 26.624 91.648zM528.896 751.616c-6.144 24.064-30.72 37.888-54.784 31.744-24.064-6.144-37.888-30.72-31.744-54.784 6.144-24.064 62.464-59.392 62.464-59.392s30.208 58.88 24.064 82.432zM665.088 921.6c-5.632 21.504-28.16 34.816-49.664 28.672-21.504-5.632-34.816-28.16-28.672-49.664 5.632-21.504 56.832-54.272 56.832-54.272s27.648 53.248 21.504 75.264zM337.408 927.232c-6.144 22.016-28.672 35.328-50.688 29.184-22.016-6.144-35.328-28.672-29.184-50.688 6.144-22.016 57.344-55.296 57.344-55.296s28.672 54.784 22.528 76.8z" fill="#16A9D4" p-id="3118"></path><path d="M929.28 425.984c0-100.352-86.016-181.76-192-181.76s-192 81.408-192 181.76v181.76h194.048c105.472-1.024 189.952-81.92 189.952-181.76z" fill="#EAEAEA" p-id="3119"></path><path d="M808.448 417.28c0-57.856-26.112-109.568-67.072-144.896 0.512-5.632 1.024-10.752 1.024-16.384 0-105.472-86.016-190.464-192-190.464S358.912 151.04 358.912 256.512c0 2.048 0 3.584 0.512 5.632-24.064-11.776-51.2-18.432-79.36-18.432C178.688 243.2 97.28 325.12 97.28 425.472c0 98.816 78.336 178.688 176.64 181.76v0.512h351.744v-0.512c101.376-4.096 182.784-87.552 182.784-189.952z" fill="#F7F7F7" p-id="3120"></path></svg>