<?xml version="1.0" standalone="no"?><!DOCTYPE svg PUBLIC "-//W3C//DTD SVG 1.1//EN" "http://www.w3.org/Graphics/SVG/1.1/DTD/svg11.dtd"><svg t="1642484017360" class="icon" viewBox="0 0 1024 1024" version="1.1" xmlns="http://www.w3.org/2000/svg" p-id="4954" xmlns:xlink="http://www.w3.org/1999/xlink" width="200" height="200"><defs><style type="text/css"></style></defs><path d="M646.656 354.816m-173.056 0a173.056 173.056 0 1 0 346.112 0 173.056 173.056 0 1 0-346.112 0Z" fill="#EDA915" p-id="4955"></path><path d="M646.656 132.096c-7.68 0-14.336-6.144-14.336-14.336v-34.816c0-7.68 6.144-14.336 14.336-14.336 7.68 0 14.336 6.144 14.336 14.336V117.76c0 8.192-6.656 14.336-14.336 14.336zM516.096 174.592c-6.144 4.608-15.36 3.072-19.968-3.072l-20.48-28.16c-4.608-6.144-3.072-15.36 3.072-19.968 6.144-4.608 15.36-3.072 19.968 3.072l20.48 28.16c4.608 6.656 3.072 15.36-3.072 19.968zM435.2 423.424c2.56 7.168-1.536 15.36-9.216 17.92l-33.28 10.752c-7.168 2.56-15.36-1.536-17.92-9.216-2.56-7.168 1.536-15.36 9.216-17.92l33.28-10.752c7.68-2.56 15.36 1.536 17.92 9.216zM516.096 534.528c6.144 4.608 7.68 13.312 3.072 19.968l-20.48 28.16c-4.608 6.144-13.312 7.68-19.968 3.072-6.144-4.608-7.68-13.312-3.072-19.968l20.48-28.16c4.608-6.144 13.312-7.68 19.968-3.072zM646.656 577.024c7.68 0 14.336 6.144 14.336 14.336v34.816c0 7.68-6.144 14.336-14.336 14.336-7.68 0-14.336-6.144-14.336-14.336v-34.816c0-8.192 6.656-14.336 14.336-14.336zM777.216 534.528c6.144-4.608 15.36-3.072 19.968 3.072l20.48 28.16c4.608 6.144 3.072 15.36-3.072 19.968-6.144 4.608-15.36 3.072-19.968-3.072l-20.48-28.16c-4.608-6.656-3.072-15.36 3.072-19.968zM858.112 423.424c2.56-7.168 10.24-11.264 17.92-9.216l33.28 10.752c7.168 2.56 11.264 10.24 9.216 17.92-2.56 7.168-10.24 11.264-17.92 9.216l-33.28-10.752c-7.68-2.56-11.776-10.752-9.216-17.92zM858.112 285.696c-2.56-7.168 1.536-15.36 9.216-17.92l33.28-10.752c7.168-2.56 15.36 1.536 17.92 9.216 2.56 7.168-1.536 15.36-9.216 17.92l-33.28 10.752c-7.68 2.56-15.36-1.536-17.92-9.216zM777.216 174.592c-6.144-4.608-7.68-13.312-3.072-19.968l20.48-28.16c4.608-6.144 13.312-7.68 19.968-3.072 6.144 4.608 7.68 13.312 3.072 19.968l-20.48 28.16c-4.608 6.144-13.824 7.68-19.968 3.072z" fill="#EDA915" p-id="4956"></path><path d="M824.832 569.344c0-86.528-73.728-156.16-164.864-156.16s-164.864 70.144-164.864 156.16v156.16h166.912c89.6-1.024 162.816-70.144 162.816-156.16z" fill="#EAEAEA" p-id="4957"></path><path d="M720.896 561.664c0-49.664-22.528-94.208-57.856-124.416 0.512-4.608 0.512-9.216 0.512-13.824 0-90.624-73.728-163.84-164.864-163.84S333.824 332.8 333.824 423.424v4.608c-20.48-10.24-44.032-15.872-68.608-15.872-86.528 0-156.672 70.144-156.672 156.672 0 84.992 67.584 154.112 151.552 156.672h302.592v-0.512c88.064-3.072 158.208-74.752 158.208-163.328z" fill="#F7F7F7" p-id="4958"></path><path d="M472.576 956.416c-3.584 0-6.656-3.072-6.656-6.656v-187.392c0-3.584 3.072-6.656 6.656-6.656 3.584 0 6.656 3.072 6.656 6.656v187.392c0 3.584-3.072 6.656-6.656 6.656z" fill="#D8D8D8" p-id="4959"></path><path d="M472.576 811.008c-1.536 0-3.584-0.512-4.608-2.048l-27.136-27.136c-2.56-2.56-2.56-7.168 0-9.728s7.168-2.56 9.728 0l22.528 22.528 22.528-22.528c2.56-2.56 7.168-2.56 9.728 0s2.56 7.168 0 9.728l-27.136 27.136c-2.048 1.024-4.096 2.048-5.632 2.048zM499.712 942.08c-1.536 0-3.584-0.512-4.608-2.048l-22.528-22.528-22.528 22.528c-2.56 2.56-7.168 2.56-9.728 0s-2.56-7.168 0-9.728l27.136-27.136c2.56-2.56 7.168-2.56 9.728 0l27.136 27.136c2.56 2.56 2.56 7.168 0 9.728-1.024 1.536-3.072 2.048-4.608 2.048z" fill="#D8D8D8" p-id="4960"></path><path d="M553.472 909.824c-1.024 0-2.56-0.512-3.584-1.024l-162.304-93.696c-3.072-2.048-4.096-6.144-2.56-9.216 2.048-3.072 6.144-4.608 9.216-2.56l162.304 93.696c3.072 2.048 4.096 6.144 2.56 9.216-1.024 2.048-3.072 3.584-5.632 3.584z" fill="#D8D8D8" p-id="4961"></path><path d="M390.656 846.848c-3.072 0-5.632-2.048-6.656-5.12-1.024-3.584 1.024-7.168 4.608-8.192l30.72-8.192-8.192-30.72c-1.024-3.584 1.024-7.168 4.608-8.192 3.584-1.024 7.168 1.024 8.192 4.608l9.728 36.864c0.512 1.536 0 3.584-0.512 5.12-1.024 1.536-2.56 2.56-4.096 3.072l-36.864 9.728c-0.512 1.024-1.024 1.024-1.536 1.024zM527.872 926.208c-3.072 0-5.632-2.048-6.656-5.12l-9.728-36.864c-1.024-3.584 1.024-7.168 4.608-8.192l36.864-9.728c3.584-1.024 7.168 1.024 8.192 4.608 1.024 3.584-1.024 7.168-4.608 8.192l-30.72 8.192 8.192 30.72c1.024 3.584-1.024 7.168-4.608 8.192h-1.536z" fill="#D8D8D8" p-id="4962"></path><path d="M391.68 909.824c-2.56 0-4.608-1.024-5.632-3.584-2.048-3.072-0.512-7.168 2.56-9.216l162.304-93.696c3.072-2.048 7.168-0.512 9.216 2.56 2.048 3.072 0.512 7.168-2.56 9.216l-162.304 93.696c-1.536 0.512-2.56 1.024-3.584 1.024z" fill="#D8D8D8" p-id="4963"></path><path d="M417.792 926.208h-1.536c-3.584-1.024-5.632-4.608-4.608-8.192l8.192-30.72-30.72-8.192c-3.584-1.024-5.632-4.608-4.608-8.192 1.024-3.584 4.608-5.632 8.192-4.608l36.864 9.728c3.584 1.024 5.632 4.608 4.608 8.192l-9.728 36.864c-1.024 3.072-4.096 5.12-6.656 5.12zM555.008 846.848h-1.536l-36.864-9.728c-1.536-0.512-3.072-1.536-4.096-3.072-1.024-1.536-1.024-3.584-0.512-5.12l9.728-36.864c1.024-3.584 4.608-5.632 8.192-4.608 3.584 1.024 5.632 4.608 4.608 8.192l-8.192 30.72 30.72 8.192c3.584 1.024 5.632 4.608 4.608 8.192-1.024 2.048-3.584 4.096-6.656 4.096z" fill="#D8D8D8" p-id="4964"></path></svg>