<?xml version="1.0" standalone="no"?><!DOCTYPE svg PUBLIC "-//W3C//DTD SVG 1.1//EN" "http://www.w3.org/Graphics/SVG/1.1/DTD/svg11.dtd"><svg t="1642484026947" class="icon" viewBox="0 0 1024 1024" version="1.1" xmlns="http://www.w3.org/2000/svg" p-id="5407" xmlns:xlink="http://www.w3.org/1999/xlink" width="200" height="200"><defs><style type="text/css"></style></defs><path d="M936.96 578.56c0-102.912-88.064-186.368-196.608-186.368s-196.608 83.456-196.608 186.368v186.368H742.4c107.52-1.024 194.56-83.968 194.56-186.368z" fill="#EAEAEA" p-id="5408"></path><path d="M813.056 569.344c0-59.392-26.624-112.64-69.12-148.48 0.512-5.632 1.024-11.264 1.024-16.896 0-108.032-88.064-195.584-196.608-195.584S351.232 296.448 351.232 404.48c0 2.048 0 3.584 0.512 5.632-24.576-11.776-52.224-18.944-81.92-18.944-103.424 0-186.88 83.968-186.88 186.88 0 101.376 80.384 183.296 181.248 186.88v0.512H624.64v-0.512c104.96-4.608 188.416-90.112 188.416-195.584z" fill="#F7F7F7" p-id="5409"></path></svg>