<?xml version="1.0" standalone="no"?><!DOCTYPE svg PUBLIC "-//W3C//DTD SVG 1.1//EN" "http://www.w3.org/Graphics/SVG/1.1/DTD/svg11.dtd"><svg t="1642484001996" class="icon" viewBox="0 0 1024 1024" version="1.1" xmlns="http://www.w3.org/2000/svg" p-id="3876" xmlns:xlink="http://www.w3.org/1999/xlink" width="200" height="200"><defs><style type="text/css"></style></defs><path d="M268.8 802.816m-30.72 0a30.72 30.72 0 1 0 61.44 0 30.72 30.72 0 1 0-61.44 0Z" fill="#D8D8D8" p-id="3877"></path><path d="M366.08 802.816m-30.72 0a30.72 30.72 0 1 0 61.44 0 30.72 30.72 0 1 0-61.44 0Z" fill="#D8D8D8" p-id="3878"></path><path d="M462.848 802.816m-30.72 0a30.72 30.72 0 1 0 61.44 0 30.72 30.72 0 1 0-61.44 0Z" fill="#D8D8D8" p-id="3879"></path><path d="M560.128 802.816m-30.72 0a30.72 30.72 0 1 0 61.44 0 30.72 30.72 0 1 0-61.44 0Z" fill="#D8D8D8" p-id="3880"></path><path d="M657.408 802.816m-30.72 0a30.72 30.72 0 1 0 61.44 0 30.72 30.72 0 1 0-61.44 0Z" fill="#D8D8D8" p-id="3881"></path><path d="M754.688 802.816m-30.72 0a30.72 30.72 0 1 0 61.44 0 30.72 30.72 0 1 0-61.44 0Z" fill="#D8D8D8" p-id="3882"></path><path d="M940.032 502.784c0-103.424-88.576-186.88-197.12-186.88S545.28 399.36 545.28 502.784v186.88h199.68c108.032-1.024 195.072-84.48 195.072-186.88z" fill="#EAEAEA" p-id="3883"></path><path d="M815.616 493.568c0-59.392-26.624-112.64-69.12-148.992 0.512-5.632 1.024-11.264 1.024-16.896 0-108.544-88.576-196.096-197.12-196.096S352.768 219.648 352.768 328.192c0 2.048 0 3.584 0.512 5.632-24.576-12.288-52.736-18.944-81.92-18.944-103.424 0-187.392 83.968-187.392 187.392 0 101.376 80.896 183.808 181.248 187.392v0.512h361.984v-0.512c104.96-4.608 188.416-90.624 188.416-196.096z" fill="#F7F7F7" p-id="3884"></path></svg>