<?xml version="1.0" standalone="no"?><!DOCTYPE svg PUBLIC "-//W3C//DTD SVG 1.1//EN" "http://www.w3.org/Graphics/SVG/1.1/DTD/svg11.dtd"><svg t="1642511940170" class="icon" viewBox="0 0 1024 1024" version="1.1" xmlns="http://www.w3.org/2000/svg" p-id="8368" xmlns:xlink="http://www.w3.org/1999/xlink" width="200" height="200"><defs><style type="text/css"></style></defs><path d="M445.76 844.88c-1.3 0-2.6-0.14-3.92-0.44-47.88-10.84-93.6-32.78-132.18-63.5-7.64-6.08-8.9-17.2-2.82-24.84 6.08-7.62 17.2-8.88 24.82-2.82 34.44 27.42 75.24 47.02 117.96 56.7 9.52 2.16 15.5 11.6 13.34 21.14-1.84 8.2-9.14 13.76-17.2 13.76z m138.74-0.12c-8.06 0-15.34-5.54-17.22-13.74-2.16-9.52 3.78-19 13.3-21.16 42.7-9.74 83.46-29.42 117.84-56.92 7.62-6.08 18.74-4.86 24.84 2.78 6.1 7.62 4.84 18.74-2.78 24.84-38.52 30.8-84.2 52.86-132.06 63.76-1.3 0.3-2.62 0.44-3.92 0.44z m-350.56-168.28a17.68 17.68 0 0 1-15.92-9.96c-21.68-44.76-32.72-92.82-32.82-142.9-0.02-9.76 7.88-17.68 17.64-17.7h0.04c9.74 0 17.66 7.88 17.68 17.64 0.1 44.72 9.94 87.62 29.3 127.56 4.26 8.78 0.58 19.36-8.2 23.6-2.5 1.2-5.12 1.76-7.72 1.76z m562.06-0.54c-2.58 0-5.18-0.56-7.66-1.74a17.684 17.684 0 0 1-8.24-23.6c19.26-39.98 29.04-82.94 29.04-127.66v-1.26c0-9.76 7.9-17.68 17.68-17.68s17.68 7.9 17.68 17.68v1.26c0 50.08-10.94 98.18-32.54 143a17.76 17.76 0 0 1-15.96 10zM233.38 405.88a17.58 17.58 0 0 1-7.62-1.74c-8.8-4.22-12.52-14.78-8.3-23.58 21.24-44.28 52.78-83.98 91.2-114.82 7.62-6.1 18.74-4.88 24.84 2.72 6.1 7.62 4.88 18.74-2.72 24.84-34.32 27.54-62.48 63-81.44 102.54a17.72 17.72 0 0 1-15.96 10.04z m562.08-1.68c-6.54 0-12.84-3.66-15.9-9.94-19.2-39.42-47.56-74.7-82.04-102.04-7.64-6.06-8.92-17.18-2.86-24.82a17.654 17.654 0 0 1 24.82-2.86c38.6 30.6 70.36 70.12 91.86 114.26 4.28 8.78 0.62 19.36-8.16 23.62-2.48 1.2-5.12 1.78-7.72 1.78z m-350.94-167.58c-8.04 0-15.32-5.54-17.2-13.72-2.18-9.5 3.76-19 13.26-21.18 47.78-10.98 98.76-11.16 146.6-0.44 9.52 2.14 15.52 11.58 13.38 21.1-2.12 9.54-11.6 15.52-21.1 13.38-42.74-9.58-88.3-9.44-130.96 0.4-1.34 0.3-2.66 0.46-3.98 0.46zM394.02 289.04a17.66 17.66 0 0 1-15.32-8.84L326.62 190c-4.88-8.44-1.98-19.26 6.46-24.14a17.678 17.678 0 0 1 24.14 6.46l52.08 90.2c4.88 8.44 1.98 19.26-6.46 24.14a17.456 17.456 0 0 1-8.82 2.38z" p-id="8369" fill="#ffffff"></path><path d="M289 229.4a17.66 17.66 0 0 1-15.32-8.84c-4.88-8.44-1.98-19.26 6.46-24.14l105.88-61.12a17.678 17.678 0 0 1 24.14 6.46c4.88 8.44 1.98 19.26-6.46 24.14l-105.88 61.12a17.456 17.456 0 0 1-8.82 2.38zM519.9 915.28c-9.76 0-17.68-7.92-17.68-17.68v-104.16c0-9.76 7.9-17.68 17.68-17.68 9.76 0 17.68 7.92 17.68 17.68v104.16c0 9.76-7.92 17.68-17.68 17.68z" p-id="8370" fill="#ffffff"></path><path d="M581.04 915.28h-122.26c-9.76 0-17.68-7.92-17.68-17.68s7.9-17.68 17.68-17.68h122.26c9.76 0 17.68 7.92 17.68 17.68s-7.92 17.68-17.68 17.68zM249.3 485.32c-1.52 0-3.06-0.2-4.58-0.6l-100.6-26.96c-9.42-2.52-15.02-12.22-12.5-21.64 2.52-9.44 12.24-15.04 21.64-12.5l100.6 26.96c9.42 2.52 15.02 12.22 12.5 21.64-2.1 7.9-9.26 13.1-17.06 13.1z" p-id="8371" fill="#ffffff"></path><path d="M132.88 517.42c-1.52 0-3.06-0.2-4.58-0.6-9.42-2.52-15.02-12.22-12.5-21.64l31.64-118.1c2.54-9.42 12.22-15.04 21.64-12.5 9.42 2.52 15.02 12.22 12.5 21.64l-31.64 118.1a17.702 17.702 0 0 1-17.06 13.1zM212.4 772.02c-5.58 0-11.06-2.62-14.48-7.54-5.6-8-3.66-19.02 4.34-24.6l85.32-59.74c8-5.6 19.02-3.66 24.6 4.34 5.6 8 3.66 19.02-4.34 24.6l-85.32 59.74a17.582 17.582 0 0 1-10.12 3.2z" p-id="8372" fill="#ffffff"></path><path d="M247.46 822.08c-5.58 0-11.06-2.62-14.48-7.54L162.84 714.4c-5.6-8-3.66-19.02 4.34-24.6 8-5.6 19.02-3.66 24.6 4.34l70.12 100.14c5.6 8 3.66 19.02-4.34 24.6a17.332 17.332 0 0 1-10.1 3.2zM631.38 289.04c-3 0-6.04-0.76-8.82-2.38a17.678 17.678 0 0 1-6.46-24.14l52.08-90.2a17.678 17.678 0 0 1 24.14-6.46A17.678 17.678 0 0 1 698.78 190l-52.08 90.2a17.66 17.66 0 0 1-15.32 8.84z" p-id="8373" fill="#ffffff"></path><path d="M736.4 229.4c-3 0-6.04-0.76-8.82-2.38l-105.88-61.12a17.678 17.678 0 0 1-6.46-24.14 17.678 17.678 0 0 1 24.14-6.46l105.88 61.12a17.678 17.678 0 0 1-8.86 32.98zM776.08 485.32c-7.8 0-14.94-5.2-17.06-13.1-2.52-9.42 3.06-19.12 12.5-21.64l100.6-26.96c9.42-2.54 19.12 3.06 21.64 12.5 2.52 9.42-3.06 19.12-12.5 21.64l-100.6 26.96c-1.52 0.4-3.06 0.6-4.58 0.6z" p-id="8374" fill="#ffffff"></path><path d="M892.52 517.42c-7.8 0-14.94-5.2-17.06-13.1l-31.64-118.1c-2.52-9.42 3.06-19.12 12.5-21.64 9.42-2.56 19.12 3.06 21.64 12.5l31.64 118.1c2.52 9.42-3.06 19.12-12.5 21.64-1.54 0.4-3.08 0.6-4.58 0.6zM813 772.02c-3.5 0-7.04-1.04-10.12-3.2l-85.32-59.74c-8-5.6-9.94-16.62-4.34-24.6 5.6-8 16.62-9.94 24.6-4.34l85.32 59.74c8 5.6 9.94 16.62 4.34 24.6a17.624 17.624 0 0 1-14.48 7.54z" p-id="8375" fill="#ffffff"></path><path d="M777.94 822.08c-3.5 0-7.04-1.04-10.12-3.2-8-5.6-9.94-16.62-4.34-24.6l70.12-100.14c5.58-8 16.6-9.94 24.6-4.34s9.94 16.62 4.34 24.6l-70.12 100.14a17.6 17.6 0 0 1-14.48 7.54zM608.4 687.84c-54.44 0-98.74-44.3-98.74-98.74s44.3-98.74 98.74-98.74 98.74 44.3 98.74 98.74c0 54.46-44.28 98.74-98.74 98.74z m0-162.14c-34.96 0-63.4 28.44-63.4 63.4s28.44 63.4 63.4 63.4 63.4-28.44 63.4-63.4-28.44-63.4-63.4-63.4zM519.32 468.26c-36.68 0-66.52-29.84-66.52-66.52s29.84-66.52 66.52-66.52c36.68 0 66.52 29.84 66.52 66.52s-29.84 66.52-66.52 66.52z m0-97.7c-17.2 0-31.18 13.98-31.18 31.18s13.98 31.18 31.18 31.18 31.18-13.98 31.18-31.18-13.98-31.18-31.18-31.18zM394.74 625.9c-45.7 0-82.88-37.18-82.88-82.88s37.18-82.86 82.88-82.86c45.68 0 82.86 37.16 82.86 82.86s-37.18 82.88-82.86 82.88z m0-130.4c-26.2 0-47.52 21.32-47.52 47.52 0 26.2 21.32 47.54 47.52 47.54s47.52-21.32 47.52-47.54c0-26.2-21.32-47.52-47.52-47.52z" p-id="8376" fill="#ffffff"></path></svg>