<?xml version="1.0" standalone="no"?><!DOCTYPE svg PUBLIC "-//W3C//DTD SVG 1.1//EN" "http://www.w3.org/Graphics/SVG/1.1/DTD/svg11.dtd"><svg t="1642483984793" class="icon" viewBox="0 0 1024 1024" version="1.1" xmlns="http://www.w3.org/2000/svg" p-id="2968" xmlns:xlink="http://www.w3.org/1999/xlink" width="200" height="200"><defs><style type="text/css"></style></defs><path d="M504.32 919.552c-7.68 28.16-36.352 44.544-64.512 37.376-28.16-7.68-44.544-36.352-37.376-64.512 7.68-28.16 73.216-70.144 73.216-70.144s36.352 69.12 28.672 97.28zM352.768 791.552c-8.192 30.72-39.936 49.152-70.656 40.96-30.72-8.192-49.152-39.936-40.96-70.656 8.192-30.72 80.384-76.8 80.384-76.8s39.424 75.776 31.232 106.496zM707.072 806.4c-8.704 32.768-42.496 52.224-75.264 43.52-32.768-8.704-52.224-42.496-43.52-75.264 8.704-32.768 85.504-81.92 85.504-81.92s41.984 80.896 33.28 113.664z" fill="#16A9D4" p-id="2969"></path><path d="M924.672 425.984c0-100.352-86.016-181.76-192-181.76s-192 81.408-192 181.76v181.76h194.048c105.472-1.024 189.952-81.92 189.952-181.76z" fill="#EAEAEA" p-id="2970"></path><path d="M803.84 417.28c0-57.856-26.112-109.568-67.072-144.896 0.512-5.632 1.024-10.752 1.024-16.384 0-105.472-86.016-190.464-192-190.464S354.304 151.04 354.304 256.512c0 2.048 0 3.584 0.512 5.632-24.064-11.776-51.2-18.432-79.36-18.432-100.864 0-182.272 81.408-182.272 182.272 0 98.816 78.336 178.688 176.64 181.76v0.512h351.744v-0.512c100.864-4.608 182.272-88.064 182.272-190.464z" fill="#F7F7F7" p-id="2971"></path></svg>