<?xml version="1.0" standalone="no"?><!DOCTYPE svg PUBLIC "-//W3C//DTD SVG 1.1//EN" "http://www.w3.org/Graphics/SVG/1.1/DTD/svg11.dtd"><svg t="1642484010797" class="icon" viewBox="0 0 1024 1024" version="1.1" xmlns="http://www.w3.org/2000/svg" p-id="4502" xmlns:xlink="http://www.w3.org/1999/xlink" width="200" height="200"><defs><style type="text/css"></style></defs><path d="M937.984 462.336c0-103.424-88.576-186.88-197.12-186.88-109.056 0-197.12 83.968-197.12 186.88v186.88h199.68c107.52-1.024 194.56-84.48 194.56-186.88z" fill="#EAEAEA" p-id="4503"></path><path d="M813.568 453.12c0-59.392-26.624-112.64-69.12-148.992 0.512-5.632 1.024-11.264 1.024-16.896 0-108.544-88.576-196.096-197.12-196.096S350.72 179.2 350.72 287.744c0 2.048 0 3.584 0.512 5.632-24.576-12.288-52.736-18.944-81.92-18.944C165.888 274.432 81.92 358.4 81.92 461.824c0 101.376 80.896 183.808 181.248 187.392v0.512h361.984v-0.512c104.96-4.608 188.416-90.624 188.416-196.096z" fill="#F7F7F7" p-id="4504"></path><path d="M503.296 942.592c-4.096 0-7.68-3.584-7.68-7.68v-206.848c0-4.096 3.584-7.68 7.68-7.68s7.68 3.584 7.68 7.68v206.848c-0.512 4.096-3.584 7.68-7.68 7.68z" fill="#D8D8D8" p-id="4505"></path><path d="M503.296 781.824c-2.048 0-3.584-0.512-5.12-2.048l-29.696-29.696c-3.072-3.072-3.072-7.68 0-10.752 3.072-3.072 7.68-3.072 10.752 0l24.576 24.576 24.576-24.576c3.072-3.072 7.68-3.072 10.752 0 3.072 3.072 3.072 7.68 0 10.752l-29.696 29.696c-2.56 1.024-4.608 2.048-6.144 2.048zM473.088 926.72c-2.048 0-3.584-0.512-5.12-2.048-3.072-3.072-3.072-7.68 0-10.752l29.696-29.696c1.536-1.536 3.072-2.048 5.12-2.048s4.096 1.024 5.12 2.048l29.696 29.696c3.072 3.072 3.072 7.68 0 10.752-3.072 3.072-7.68 3.072-10.752 0l-24.576-24.576-24.576 24.576c-0.512 1.536-2.56 2.048-4.608 2.048z" fill="#D8D8D8" p-id="4506"></path><path d="M592.384 890.88c-1.024 0-2.56-0.512-3.584-1.024l-179.2-103.424c-3.584-2.048-4.608-6.656-2.56-10.24s6.656-4.608 10.24-2.56l179.2 103.424c3.584 2.048 4.608 6.656 2.56 10.24-1.536 2.048-4.096 3.584-6.656 3.584z" fill="#D8D8D8" p-id="4507"></path><path d="M412.16 821.248c-3.072 0-6.144-2.048-7.168-5.632-1.024-4.096 1.536-8.192 5.12-9.216l33.792-9.216-9.216-33.792c-1.024-4.096 1.536-8.192 5.12-9.216 4.096-1.024 8.192 1.536 9.216 5.12l10.752 40.96c0.512 2.048 0 4.096-0.512 5.632-1.024 1.536-2.56 3.072-4.608 3.584l-40.96 10.752c0 1.024-0.512 1.024-1.536 1.024zM564.224 908.8c-3.072 0-6.144-2.048-7.168-5.632l-10.752-40.96c-1.024-4.096 1.536-8.192 5.12-9.216l40.96-10.752c4.096-1.024 8.192 1.536 9.216 5.12 1.024 4.096-1.536 8.192-5.12 9.216l-33.792 9.216 9.216 33.792c1.024 4.096-1.536 8.192-5.12 9.216h-2.56z" fill="#D8D8D8" p-id="4508"></path><path d="M413.696 890.88c-2.56 0-5.12-1.536-6.656-3.584-2.048-3.584-1.024-8.192 2.56-10.24l179.2-103.424c3.584-2.048 8.192-1.024 10.24 2.56s1.024 8.192-2.56 10.24l-179.2 103.424c-1.024 0.512-2.56 1.024-3.584 1.024z" fill="#D8D8D8" p-id="4509"></path><path d="M442.368 908.8c-0.512 0-1.536 0-2.048-0.512-4.096-1.024-6.144-5.12-5.12-9.216l9.216-33.792-33.792-9.216c-4.096-1.024-6.144-5.12-5.12-9.216 1.024-4.096 5.12-6.144 9.216-5.12l40.96 10.752c4.096 1.024 6.144 5.12 5.12 9.216l-10.752 40.96c-1.536 4.096-4.608 6.144-7.68 6.144zM593.92 821.248c-0.512 0-1.536 0-2.048-0.512l-40.96-10.752c-4.096-1.024-6.144-5.12-5.12-9.216l10.752-40.96c1.024-4.096 5.12-6.144 9.216-5.12 4.096 1.024 6.144 5.12 5.12 9.216l-9.216 33.792 33.792 9.216c4.096 1.024 6.144 5.12 5.12 9.216-0.512 3.072-3.584 5.12-6.656 5.12z" fill="#D8D8D8" p-id="4510"></path></svg>