<?xml version="1.0" standalone="no"?><!DOCTYPE svg PUBLIC "-//W3C//DTD SVG 1.1//EN" "http://www.w3.org/Graphics/SVG/1.1/DTD/svg11.dtd"><svg t="1642484031868" class="icon" viewBox="0 0 1024 1024" version="1.1" xmlns="http://www.w3.org/2000/svg" p-id="5710" xmlns:xlink="http://www.w3.org/1999/xlink" width="200" height="200"><defs><style type="text/css"></style></defs><path d="M446.976 788.48c-8.704 32.768-42.496 52.224-75.264 43.52-32.768-8.704-52.224-42.496-43.52-75.264 8.704-32.768 85.504-81.92 85.504-81.92s41.984 80.896 33.28 113.664zM656.896 908.288c-8.192 31.232-40.448 49.664-71.68 41.472-31.232-8.192-49.664-40.448-41.472-71.68 8.192-31.232 81.408-77.824 81.408-77.824s39.936 76.8 31.744 108.032z" fill="#16A9D4" p-id="5711"></path><path d="M929.28 438.272c0-100.352-85.504-181.76-191.488-181.76S546.304 337.92 546.304 438.272v181.76h194.048c104.448-1.536 188.928-82.432 188.928-181.76z" fill="#EAEAEA" p-id="5712"></path><path d="M808.448 429.568c0-57.856-26.112-109.568-67.072-144.384 0.512-5.632 1.024-10.752 1.024-16.384 0-104.96-85.504-190.464-191.488-190.464S359.424 163.328 359.424 268.8c0 2.048 0 3.584 0.512 5.632-24.064-11.776-51.2-18.432-79.36-18.432-100.352 0-182.272 81.408-182.272 182.272 0 98.304 78.336 178.688 176.128 181.76v0.512h351.232v-1.024c101.888-4.608 182.784-87.552 182.784-189.952z" fill="#F7F7F7" p-id="5713"></path></svg>