<?xml version="1.0" standalone="no"?><!DOCTYPE svg PUBLIC "-//W3C//DTD SVG 1.1//EN" "http://www.w3.org/Graphics/SVG/1.1/DTD/svg11.dtd"><svg t="1651387621737" class="icon" viewBox="0 0 1024 1024" version="1.1" xmlns="http://www.w3.org/2000/svg" p-id="20191" xmlns:xlink="http://www.w3.org/1999/xlink" width="200" height="200"><defs><style type="text/css"></style></defs><path d="M286.281 778.438m-51.011 0a51.011 51.011 0 1 0 102.022 0 51.011 51.011 0 1 0-102.022 0Z" fill="#848484" p-id="20192"></path><path d="M811.729 778.438m-51.011 0a51.011 51.011 0 1 0 102.022 0 51.011 51.011 0 1 0-102.022 0Z" fill="#848484" p-id="20193"></path><path d="M286.281 705.428c-40.258 0-73.011 32.753-73.011 73.011s32.752 73.011 73.011 73.011 73.011-32.753 73.011-73.011-32.753-73.011-73.011-73.011z m0 102.021c-15.997 0-29.011-13.014-29.011-29.011s13.014-29.011 29.011-29.011 29.011 13.014 29.011 29.011-13.015 29.011-29.011 29.011zM811.729 705.428c-40.258 0-73.011 32.753-73.011 73.011s32.753 73.011 73.011 73.011 73.011-32.753 73.011-73.011-32.754-73.011-73.011-73.011z m0 102.021c-15.997 0-29.011-13.014-29.011-29.011s13.014-29.011 29.011-29.011 29.011 13.014 29.011 29.011-13.014 29.011-29.011 29.011z" fill="#848484" p-id="20194"></path><path d="M871.902 606.133c20.404-46.771 12.181-92.041 4.582-116.725-15.916-75.571-43.188-139.639-81.075-190.432-30.887-41.407-68.771-74.057-112.601-97.043-74.867-39.265-141.013-36.574-143.79-36.44-10.362 0.499-18.968 8.192-20.65 18.428L473.302 458h-91.399L277.602 222.475c-0.216-0.488-0.45-0.98-0.701-1.451-1.31-2.458-33.168-59.848-127.642-28.963-11.549 3.776-17.85 16.196-14.075 27.745 3.776 11.549 16.198 17.85 27.748 14.073 53.927-17.628 72.279 3.945 75.075 7.852L333.781 458h-92.294c-10.622 0-19.727 7.566-21.64 18.014-12.521 68.38-2.554 124.882 29.627 167.961 35.295 47.247 87.56 64.494 113.686 70.414 13.228 53.53 39.148 93.061 77.183 117.645 33.964 21.952 69.482 26.559 93.297 26.559 9.604 0 16.731-0.775 20.117-1.235 91.096-0.507 135.849-42.973 157.364-78.63 14.351-23.785 20.254-47.61 22.678-62.773 70.262-23.84 116.69-60.742 138.103-109.822zM558.651 210.118c21.646 1.833 60.895 8.356 103.722 30.817C739.782 281.532 793.834 354 823.424 458h-305.53l40.757-247.882z m148.477 468.193a21.994 21.994 0 0 0-15.637 20.611c-0.006 0.281-1.044 28.901-18.044 57.075-22.968 38.065-63.791 57.364-121.335 57.364-1.311 0-2.415 0.081-3.699 0.313-0.591 0.092-6.188 0.917-14.773 0.917-39.765 0-109.603-16.037-130.561-123.443a21.998 21.998 0 0 0-19.254-17.662c-0.624-0.067-62.776-7.205-99.101-55.832C262.866 588.395 254.706 550 260.386 502h107.063c0.05 0 0.099 0.005 0.149 0.005 0.07 0 0.14-0.005 0.209-0.005h466.469c5.535 18 12.325 52.538-2.896 87.005-17.52 39.666-59.323 69.705-124.252 89.306z" fill="#848484" p-id="20195"></path></svg>