<?xml version="1.0" standalone="no"?><!DOCTYPE svg PUBLIC "-//W3C//DTD SVG 1.1//EN" "http://www.w3.org/Graphics/SVG/1.1/DTD/svg11.dtd"><svg t="1651387567012" class="icon" viewBox="0 0 1024 1024" version="1.1" xmlns="http://www.w3.org/2000/svg" p-id="13681" xmlns:xlink="http://www.w3.org/1999/xlink" width="200" height="200"><defs><style type="text/css"></style></defs><path d="M926.9 716.3c-40.1-27.4-342-211.2-398.1-245.3v-57.8c54-8.2 95.5-54.9 95.5-111.2 0-62-50.5-112.4-112.5-112.4S399.4 240 399.4 302c0 9.6 1.2 19.1 3.6 28.4 2.3 9.1 11.6 14.5 20.7 12.2 9.1-2.3 14.6-11.6 12.2-20.7-1.7-6.5-2.5-13.2-2.5-19.9 0-43.3 35.2-78.5 78.5-78.5s78.5 35.2 78.5 78.5-35.2 78.5-78.5 78.5c-9.4 0-17 7.6-17 17V471c-47.2 28.7-357.3 217.3-398.1 245.3-26.2 17.9-38 46.3-30 72.1 6.9 22.4 31.2 46.3 78.7 46.3h732.8c47.5 0 71.7-23.9 78.7-46.3 7.9-25.9-3.9-54.2-30.1-72.1z m-2.5 62.1c-4.3 13.8-22 22.3-46.2 22.3H145.4c-24.2 0-41.9-8.6-46.2-22.3-3.6-11.5 2.8-24.6 16.7-34 39.2-26.8 345.2-213 396-243.8 58.2 35.4 356.7 217 395.8 243.8 13.9 9.4 20.2 22.5 16.7 34z" p-id="13682" fill="#ffffff"></path></svg>