<?xml version="1.0" standalone="no"?><!DOCTYPE svg PUBLIC "-//W3C//DTD SVG 1.1//EN" "http://www.w3.org/Graphics/SVG/1.1/DTD/svg11.dtd"><svg t="1642484012921" class="icon" viewBox="0 0 1024 1024" version="1.1" xmlns="http://www.w3.org/2000/svg" p-id="4656" xmlns:xlink="http://www.w3.org/1999/xlink" width="200" height="200"><defs><style type="text/css"></style></defs><path d="M651.264 373.248m-183.808 0a183.808 183.808 0 1 0 367.616 0 183.808 183.808 0 1 0-367.616 0Z" fill="#EDA915" p-id="4657"></path><path d="M651.264 137.728c-8.192 0-14.848-6.656-14.848-14.848v-36.864c0-8.192 6.656-14.848 14.848-14.848 8.192 0 14.848 6.656 14.848 14.848V122.88c0 8.192-6.656 14.848-14.848 14.848zM513.024 182.784c-6.656 4.608-15.872 3.584-20.992-3.072l-21.504-29.696c-4.608-6.656-3.584-15.872 3.072-20.992 6.656-4.608 15.872-3.584 20.992 3.072l21.504 29.696c5.12 6.656 3.584 15.872-3.072 20.992zM427.008 445.952c2.56 7.68-1.536 16.384-9.728 18.944L382.464 476.16c-7.68 2.56-16.384-1.536-18.944-9.728-2.56-7.68 1.536-16.384 9.728-18.944l35.328-11.264c7.68-2.56 16.384 2.048 18.432 9.728zM513.024 563.712c6.656 4.608 8.192 14.336 3.072 20.992l-21.504 29.696c-4.608 6.656-14.336 8.192-20.992 3.072-6.656-4.608-8.192-14.336-3.072-20.992l21.504-29.696c4.608-6.656 14.336-7.68 20.992-3.072zM651.264 608.768c8.192 0 14.848 6.656 14.848 14.848v36.864c0 8.192-6.656 14.848-14.848 14.848-8.192 0-14.848-6.656-14.848-14.848v-36.864c0-8.192 6.656-14.848 14.848-14.848zM789.504 563.712c6.656-4.608 15.872-3.584 20.992 3.072l21.504 29.696c4.608 6.656 3.584 15.872-3.072 20.992-6.656 4.608-15.872 3.584-20.992-3.072l-21.504-29.696c-5.12-6.656-3.584-15.872 3.072-20.992zM875.008 445.952c2.56-7.68 11.264-12.288 18.944-9.728l35.328 11.264c7.68 2.56 12.288 11.264 9.728 18.944s-11.264 12.288-18.944 9.728l-35.328-11.264c-7.68-2.56-12.288-11.264-9.728-18.944zM875.008 300.544c-2.56-7.68 1.536-16.384 9.728-18.944l35.328-11.264c7.68-2.56 16.384 1.536 18.944 9.728 2.56 7.68-1.536 16.384-9.728 18.944l-35.328 11.264c-7.68 2.56-16.384-2.048-18.944-9.728zM789.504 182.784c-6.656-4.608-8.192-14.336-3.072-20.992l21.504-29.696c4.608-6.656 14.336-8.192 20.992-3.072 6.656 4.608 8.192 14.336 3.072 20.992l-21.504 29.696c-4.608 6.144-14.336 7.68-20.992 3.072z" fill="#EDA915" p-id="4658"></path><path d="M839.68 600.576c0-91.648-78.336-165.888-174.592-165.888s-174.592 74.24-174.592 165.888v165.888h177.152c95.232-1.536 172.032-74.752 172.032-165.888z" fill="#EAEAEA" p-id="4659"></path><path d="M729.6 592.896c0-52.736-23.552-99.84-60.928-131.584 0.512-5.12 0.512-9.728 0.512-14.848 0-95.744-78.336-173.568-174.592-173.568S320 350.208 320 445.952v5.12c-22.016-10.752-46.592-16.896-72.704-16.896-91.648 0-165.888 74.24-165.888 165.888 0 90.112 71.68 162.816 160.768 165.888v0.512h320.512v-0.512c92.672-4.096 166.912-79.872 166.912-173.056z" fill="#F7F7F7" p-id="4660"></path><path d="M485.888 917.504c-7.68 28.672-37.376 46.08-66.56 38.4-28.672-7.68-46.08-37.376-38.4-66.56 7.68-28.672 75.264-72.192 75.264-72.192s37.888 71.168 29.696 100.352z" fill="#16A9D4" p-id="4661"></path></svg>