<?xml version="1.0" standalone="no"?><!DOCTYPE svg PUBLIC "-//W3C//DTD SVG 1.1//EN" "http://www.w3.org/Graphics/SVG/1.1/DTD/svg11.dtd"><svg t="1642483988821" class="icon" viewBox="0 0 1024 1024" version="1.1" xmlns="http://www.w3.org/2000/svg" p-id="3266" xmlns:xlink="http://www.w3.org/1999/xlink" width="200" height="200"><defs><style type="text/css"></style></defs><path d="M657.408 438.272m-189.952 0a189.952 189.952 0 1 0 379.904 0 189.952 189.952 0 1 0-379.904 0Z" fill="#EDA915" p-id="3267"></path><path d="M657.408 194.56c-8.704 0-15.36-7.168-15.36-15.36v-38.4c0-8.704 7.168-15.36 15.36-15.36 8.704 0 15.36 7.168 15.36 15.36V179.2c0 8.192-6.656 15.36-15.36 15.36zM514.048 241.152c-6.656 5.12-16.896 3.584-21.504-3.584l-22.528-30.72c-5.12-6.656-3.584-16.896 3.584-21.504 6.656-5.12 16.896-3.584 21.504 3.584l22.528 30.72c5.12 6.656 3.584 16.384-3.584 21.504zM425.472 513.536c2.56 8.192-2.048 16.896-9.728 19.456l-36.352 11.776c-8.192 2.56-16.896-2.048-19.456-9.728-2.56-8.192 2.048-16.896 9.728-19.456l36.352-11.776c8.192-3.072 16.896 1.536 19.456 9.728zM514.048 635.392c6.656 5.12 8.192 14.848 3.584 21.504l-22.528 30.72c-5.12 6.656-14.848 8.192-21.504 3.584-6.656-5.12-8.192-14.848-3.584-21.504l22.528-30.72c5.12-7.168 14.848-8.704 21.504-3.584zM657.408 681.984c8.704 0 15.36 7.168 15.36 15.36v38.4c0 8.704-7.168 15.36-15.36 15.36-8.704 0-15.36-7.168-15.36-15.36v-38.4c0-8.704 6.656-15.36 15.36-15.36zM800.768 635.392c6.656-5.12 16.896-3.584 21.504 3.584l22.528 30.72c5.12 6.656 3.584 16.896-3.584 21.504-6.656 5.12-16.896 3.584-21.504-3.584l-22.528-30.72c-5.12-6.656-3.584-16.384 3.584-21.504zM889.344 513.536c2.56-8.192 11.264-12.8 19.456-9.728l36.352 11.776c8.192 2.56 12.8 11.264 9.728 19.456-2.56 8.192-11.264 12.8-19.456 9.728l-36.352-11.776c-8.192-2.56-12.288-11.264-9.728-19.456zM889.344 363.008c-2.56-8.192 2.048-16.896 9.728-19.456l36.352-11.776c8.192-2.56 16.896 2.048 19.456 9.728 2.56 8.192-2.048 16.896-9.728 19.456l-36.352 11.776c-8.192 2.56-16.896-1.536-19.456-9.728zM800.768 241.152c-6.656-5.12-8.192-14.848-3.584-21.504l22.528-30.72c5.12-6.656 14.848-8.192 21.504-3.584 6.656 5.12 8.192 14.848 3.584 21.504l-22.528 30.72c-5.12 6.656-14.848 8.704-21.504 3.584z" fill="#EDA915" p-id="3268"></path><path d="M851.456 673.28c0-94.208-80.896-171.008-180.224-171.008S491.008 578.56 491.008 673.28v171.008h182.272c98.304-1.536 178.176-77.312 178.176-171.008z" fill="#EAEAEA" p-id="3269"></path><path d="M737.792 665.088c0-54.272-24.576-102.912-62.976-136.192 0.512-5.12 1.024-10.24 1.024-15.36 0-98.816-80.896-179.2-180.224-179.2s-180.224 80.384-180.224 179.2c0 1.536 0 3.584 0.512 5.12-22.528-11.264-48.128-17.408-74.752-17.408-94.72 0-171.52 76.8-171.52 171.52 0 92.672 73.728 167.936 165.888 171.008v0.512h330.752v-0.512c94.72-4.096 171.52-82.432 171.52-178.688z" fill="#F7F7F7" p-id="3270"></path></svg>