<?xml version="1.0" standalone="no"?><!DOCTYPE svg PUBLIC "-//W3C//DTD SVG 1.1//EN" "http://www.w3.org/Graphics/SVG/1.1/DTD/svg11.dtd"><svg t="1642840038974" class="icon" viewBox="0 0 1024 1024" version="1.1" xmlns="http://www.w3.org/2000/svg" p-id="2146" xmlns:xlink="http://www.w3.org/1999/xlink" width="200" height="200"><defs><style type="text/css"></style></defs><path d="M943.2 412.4c-4.2-12.8-14.7-22.5-27.8-25.7l-241.6-58.3-130.2-211.8c-7.1-11.5-19.6-18.5-33-18.5-13.5 0-26 7-33 18.5L347.5 328.4l-241.6 58.3c-13.1 3.2-23.6 12.9-27.8 25.7-4.2 12.8-1.4 26.9 7.4 37.1l161.2 189.2-19.2 247.8c-1 13.4 5 26.4 15.9 34.3 6.7 4.9 14.7 7.4 22.8 7.4 5 0 10-1 14.8-2.9l229.7-94.9 229.8 94.9c4.8 2 9.8 2.9 14.8 2.9 8.1 0 16-2.5 22.8-7.4 10.9-7.9 16.9-20.9 15.9-34.3l-19.2-247.8L936 449.5c8.5-10.2 11.3-24.3 7.2-37.1zM734.7 625.8l20.5 263.8-244.6-101-244.5 101 20.5-263.8-171.7-201.4 257.2-62L510.6 137l138.5 225.4 257.2 62-171.6 201.4z" p-id="2147" fill="#ffffff"></path></svg>